  0
SECTION
  2
HEADER
  9
$ACADVER
  1
AC1014
  9
$HANDSEED
  5
FFFF
  9
$MEASUREMENT
 70
     1
  0
ENDSEC
  0
SECTION
  2
TABLES
  0
TABLE
  2
VPORT
  5
8
330
0
100
AcDbSymbolTable
 70
     4
  0
VPORT
  5
2E
330
8
100
AcDbSymbolTableRecord
100
AcDbViewportTableRecord
  2
*ACTIVE
 70
     0
 10
0.0
 20
0.0
 11
1.0
 21
1.0
 12
210.0
 22
148.5
 13
0.0
 23
0.0
 14
10.0
 24
10.0
 15
10.0
 25
10.0
 16
0.0
 26
0.0
 36
1.0
 17
0.0
 27
0.0
 37
0.0
 40
341.0
 41
1.24
 42
50.0
 43
0.0
 44
0.0
 50
0.0
 51
0.0
 71
     0
 72
   100
 73
     1
 74
     3
 75
     0
 76
     0
 77
     0
 78
     0
  0
ENDTAB
  0
TABLE
  2
LTYPE
  5
5
330
0
100
AcDbSymbolTable
 70
     1
  0
LTYPE
  5
14
330
5
100
AcDbSymbolTableRecord
100
AcDbLinetypeTableRecord
  2
BYBLOCK
 70
     0
  3

 72
    65
 73
     0
 40
0.0
  0
LTYPE
  5
15
330
5
100
AcDbSymbolTableRecord
100
AcDbLinetypeTableRecord
  2
BYLAYER
 70
     0
  3

 72
    65
 73
     0
 40
0.0
  0
LTYPE
  5
16
330
5
100
AcDbSymbolTableRecord
100
AcDbLinetypeTableRecord
  2
CONTINUOUS
 70
     0
  3
Solid line
 72
    65
 73
     0
 40
0.0
  0
ENDTAB
  0
TABLE
  2
LAYER
  5
2
100
AcDbSymbolTable
 70
2
  0
LAYER
  5
50
100
AcDbSymbolTableRecord
100
AcDbLayerTableRecord
  2
0
 70
0
  6
CONTINUOUS
  0
LAYER
  5
51
100
AcDbSymbolTableRecord
100
AcDbLayerTableRecord
  2
Calque_2
 70
0
  6
CONTINUOUS
  0
ENDTAB
  0
TABLE
  2
STYLE
  5
3
330
0
100
AcDbSymbolTable
 70
     1
  0
STYLE
  5
11
330
3
100
AcDbSymbolTableRecord
100
AcDbTextStyleTableRecord
  2
STANDARD
 70
     0
 40
0.0
 41
1.0
 50
0.0
 71
     0
 42
2.5
  3
txt
  4

  0
ENDTAB
  0
TABLE
  2
VIEW
  5
6
330
0
100
AcDbSymbolTable
 70
     0
  0
ENDTAB
  0
TABLE
  2
UCS
  5
7
330
0
100
AcDbSymbolTable
 70
     0
  0
ENDTAB
  0
TABLE
  2
APPID
  5
9
330
0
100
AcDbSymbolTable
 70
     2
  0
APPID
  5
12
330
9
100
AcDbSymbolTableRecord
100
AcDbRegAppTableRecord
  2
ACAD
 70
     0
  0
ENDTAB
  0
TABLE
  2
DIMSTYLE
  5
A
330
0
100
AcDbSymbolTable
 70
     1
  0
DIMSTYLE
105
27
330
A
100
AcDbSymbolTableRecord
100
AcDbDimStyleTableRecord
  2
ISO-25
 70
     0
  3

  4

  5

  6

  7

 40
1.0
 41
2.5
 42
0.625
 43
3.75
 44
1.25
 45
0.0
 46
0.0
 47
0.0
 48
0.0
140
2.5
141
2.5
142
0.0
143
0.03937007874016
144
1.0
145
0.0
146
1.0
147
0.625
 71
     0
 72
     0
 73
     0
 74
     0
 75
     0
 76
     0
 77
     1
 78
     8
170
     0
171
     3
172
     1
173
     0
174
     0
175
     0
176
     0
177
     0
178
     0
270
     2
271
     2
272
     2
273
     2
274
     3
340
11
275
     0
280
     0
281
     0
282
     0
283
     0
284
     8
285
     0
286
     0
287
     3
288
     0
  0
ENDTAB
  0
TABLE
  2
BLOCK_RECORD
  5
1
330
0
100
AcDbSymbolTable
 70
     1
  0
BLOCK_RECORD
  5
1F
330
1
100
AcDbSymbolTableRecord
100
AcDbBlockTableRecord
  2
*MODEL_SPACE
  0
BLOCK_RECORD
  5
1B
330
1
100
AcDbSymbolTableRecord
100
AcDbBlockTableRecord
  2
*PAPER_SPACE
  0
ENDTAB
  0
ENDSEC
  0
SECTION
  2
BLOCKS
  0
BLOCK
  5
20
330
1F
100
AcDbEntity
  8
0
100
AcDbBlockBegin
  2
*MODEL_SPACE
 70
     0
 10
0.0
 20
0.0
 30
0.0
  3
*MODEL_SPACE
  1

  0
ENDBLK
  5
21
330
1F
100
AcDbEntity
  8
0
100
AcDbBlockEnd
  0
BLOCK
  5
1C
330
1B
100
AcDbEntity
 67
     1
  8
0
100
AcDbBlockBegin
  2
*PAPER_SPACE
  1

  0
ENDBLK
  5
1D
330
1B
100
AcDbEntity
 67
     1
  8
0
100
AcDbBlockEnd
  0
ENDSEC
  0
SECTION
  2
ENTITIES
  0
LINE
  5
100
100
AcDbEntity
  8
Calque_2
 62
7
100
AcDbLine
 10
3.617875
 20
64.845204
 30
0.0
 11
33.540123
 21
64.845204
 31
0.0
  0
LINE
  5
101
100
AcDbEntity
  8
Calque_2
 62
7
100
AcDbLine
 10
33.540123
 20
64.845204
 30
0.0
 11
33.540123
 21
49.922956
 31
0.0
  0
LINE
  5
102
100
AcDbEntity
  8
Calque_2
 62
7
100
AcDbLine
 10
33.540123
 20
49.922956
 30
0.0
 11
3.617875
 21
49.922956
 31
0.0
  0
LINE
  5
103
100
AcDbEntity
  8
Calque_2
 62
7
100
AcDbLine
 10
3.617875
 20
49.922956
 30
0.0
 11
3.617875
 21
64.845204
 31
0.0
  0
LINE
  5
104
100
AcDbEntity
  8
Calque_2
 62
7
100
AcDbLine
 10
37.486947
 20
65.392190
 30
0.0
 11
52.431046
 21
65.392190
 31
0.0
  0
LINE
  5
105
100
AcDbEntity
  8
Calque_2
 62
7
100
AcDbLine
 10
52.431046
 20
65.392190
 30
0.0
 11
52.431046
 21
49.948091
 31
0.0
  0
LINE
  5
106
100
AcDbEntity
  8
Calque_2
 62
7
100
AcDbLine
 10
52.431046
 20
49.948091
 30
0.0
 11
37.486947
 21
49.948091
 31
0.0
  0
LINE
  5
107
100
AcDbEntity
  8
Calque_2
 62
7
100
AcDbLine
 10
37.486947
 20
49.948091
 30
0.0
 11
37.486947
 21
65.392190
 31
0.0
  0
LINE
  5
108
100
AcDbEntity
  8
Calque_2
 62
7
100
AcDbLine
 10
3.610867
 20
45.944628
 30
0.0
 11
23.697132
 21
45.944628
 31
0.0
  0
LINE
  5
109
100
AcDbEntity
  8
Calque_2
 62
7
100
AcDbLine
 10
23.697132
 20
45.944628
 30
0.0
 11
23.697132
 21
31.008361
 31
0.0
  0
LINE
  5
10a
100
AcDbEntity
  8
Calque_2
 62
7
100
AcDbLine
 10
23.697132
 20
31.008361
 30
0.0
 11
3.610867
 21
31.008361
 31
0.0
  0
LINE
  5
10b
100
AcDbEntity
  8
Calque_2
 62
7
100
AcDbLine
 10
3.610867
 20
31.008361
 30
0.0
 11
3.610867
 21
45.944628
 31
0.0
  0
LINE
  5
10c
100
AcDbEntity
  8
Calque_2
 62
7
100
AcDbLine
 10
3.618198
 20
27.014897
 30
0.0
 11
34.039802
 21
27.014897
 31
0.0
  0
LINE
  5
10d
100
AcDbEntity
  8
Calque_2
 62
7
100
AcDbLine
 10
34.039802
 20
27.014897
 30
0.0
 11
34.039802
 21
12.093292
 31
0.0
  0
LINE
  5
10e
100
AcDbEntity
  8
Calque_2
 62
7
100
AcDbLine
 10
34.039802
 20
12.093292
 30
0.0
 11
3.618198
 21
12.093292
 31
0.0
  0
LINE
  5
10f
100
AcDbEntity
  8
Calque_2
 62
7
100
AcDbLine
 10
3.618198
 20
12.093292
 30
0.0
 11
3.618198
 21
27.014897
 31
0.0
  0
LINE
  5
110
100
AcDbEntity
  8
Calque_2
 62
7
100
AcDbLine
 10
27.682613
 20
45.952970
 30
0.0
 11
42.627621
 21
45.952970
 31
0.0
  0
LINE
  5
111
100
AcDbEntity
  8
Calque_2
 62
7
100
AcDbLine
 10
42.627621
 20
45.952970
 30
0.0
 11
42.627621
 21
31.007961
 31
0.0
  0
LINE
  5
112
100
AcDbEntity
  8
Calque_2
 62
7
100
AcDbLine
 10
42.627621
 20
31.007961
 30
0.0
 11
27.682613
 21
31.007961
 31
0.0
  0
LINE
  5
113
100
AcDbEntity
  8
Calque_2
 62
7
100
AcDbLine
 10
27.682613
 20
31.007961
 30
0.0
 11
27.682613
 21
45.952970
 31
0.0
  0
LINE
  5
114
100
AcDbEntity
  8
Calque_2
 62
7
100
AcDbLine
 10
37.525947
 20
27.014770
 30
0.0
 11
52.970046
 21
27.014770
 31
0.0
  0
LINE
  5
115
100
AcDbEntity
  8
Calque_2
 62
7
100
AcDbLine
 10
52.970046
 20
27.014770
 30
0.0
 11
52.970046
 21
12.070670
 31
0.0
  0
LINE
  5
116
100
AcDbEntity
  8
Calque_2
 62
7
100
AcDbLine
 10
52.970046
 20
12.070670
 30
0.0
 11
37.525947
 21
12.070670
 31
0.0
  0
LINE
  5
117
100
AcDbEntity
  8
Calque_2
 62
7
100
AcDbLine
 10
37.525947
 20
12.070670
 30
0.0
 11
37.525947
 21
27.014770
 31
0.0
  0
LINE
  5
118
100
AcDbEntity
  8
Calque_2
 62
7
100
AcDbLine
 10
32.835977
 20
83.743550
 30
0.0
 11
47.780985
 21
83.743550
 31
0.0
  0
LINE
  5
119
100
AcDbEntity
  8
Calque_2
 62
7
100
AcDbLine
 10
47.780985
 20
83.743550
 30
0.0
 11
47.780985
 21
68.798541
 31
0.0
  0
LINE
  5
11a
100
AcDbEntity
  8
Calque_2
 62
7
100
AcDbLine
 10
47.780985
 20
68.798541
 30
0.0
 11
32.835977
 21
68.798541
 31
0.0
  0
LINE
  5
11b
100
AcDbEntity
  8
Calque_2
 62
7
100
AcDbLine
 10
32.835977
 20
68.798541
 30
0.0
 11
32.835977
 21
83.743550
 31
0.0
  0
LINE
  5
11c
100
AcDbEntity
  8
Calque_2
 62
7
100
AcDbLine
 10
3.606951
 20
102.672591
 30
0.0
 11
19.051050
 21
102.672591
 31
0.0
  0
LINE
  5
11d
100
AcDbEntity
  8
Calque_2
 62
7
100
AcDbLine
 10
19.051050
 20
102.672591
 30
0.0
 11
19.051050
 21
87.728491
 31
0.0
  0
LINE
  5
11e
100
AcDbEntity
  8
Calque_2
 62
7
100
AcDbLine
 10
19.051050
 20
87.728491
 30
0.0
 11
3.606951
 21
87.728491
 31
0.0
  0
LINE
  5
11f
100
AcDbEntity
  8
Calque_2
 62
7
100
AcDbLine
 10
3.606951
 20
87.728491
 30
0.0
 11
3.606951
 21
102.672591
 31
0.0
  0
LINE
  5
120
100
AcDbEntity
  8
Calque_2
 62
7
100
AcDbLine
 10
23.043237
 20
102.673046
 30
0.0
 11
37.988245
 21
102.673046
 31
0.0
  0
LINE
  5
121
100
AcDbEntity
  8
Calque_2
 62
7
100
AcDbLine
 10
37.988245
 20
102.673046
 30
0.0
 11
37.988245
 21
87.728037
 31
0.0
  0
LINE
  5
122
100
AcDbEntity
  8
Calque_2
 62
7
100
AcDbLine
 10
37.988245
 20
87.728037
 30
0.0
 11
23.043237
 21
87.728037
 31
0.0
  0
LINE
  5
123
100
AcDbEntity
  8
Calque_2
 62
7
100
AcDbLine
 10
23.043237
 20
87.728037
 30
0.0
 11
23.043237
 21
102.673046
 31
0.0
  0
LINE
  5
124
100
AcDbEntity
  8
Calque_2
 62
7
100
AcDbLine
 10
41.970783
 20
102.673046
 30
0.0
 11
56.915791
 21
102.673046
 31
0.0
  0
LINE
  5
125
100
AcDbEntity
  8
Calque_2
 62
7
100
AcDbLine
 10
56.915791
 20
102.673046
 30
0.0
 11
56.915791
 21
87.728037
 31
0.0
  0
LINE
  5
126
100
AcDbEntity
  8
Calque_2
 62
7
100
AcDbLine
 10
56.915791
 20
87.728037
 30
0.0
 11
41.970783
 21
87.728037
 31
0.0
  0
LINE
  5
127
100
AcDbEntity
  8
Calque_2
 62
7
100
AcDbLine
 10
41.970783
 20
87.728037
 30
0.0
 11
41.970783
 21
102.673046
 31
0.0
  0
LINE
  5
128
100
AcDbEntity
  8
Calque_2
 62
7
100
AcDbLine
 10
51.763533
 20
83.714343
 30
0.0
 11
66.708541
 21
83.714343
 31
0.0
  0
LINE
  5
129
100
AcDbEntity
  8
Calque_2
 62
7
100
AcDbLine
 10
66.708541
 20
83.714343
 30
0.0
 11
66.708541
 21
68.769334
 31
0.0
  0
LINE
  5
12a
100
AcDbEntity
  8
Calque_2
 62
7
100
AcDbLine
 10
66.708541
 20
68.769334
 30
0.0
 11
51.763533
 21
68.769334
 31
0.0
  0
LINE
  5
12b
100
AcDbEntity
  8
Calque_2
 62
7
100
AcDbLine
 10
51.763533
 20
68.769334
 30
0.0
 11
51.763533
 21
83.714343
 31
0.0
  0
LINE
  5
12c
100
AcDbEntity
  8
Calque_2
 62
7
100
AcDbLine
 10
60.898342
 20
102.673046
 30
0.0
 11
75.843349
 21
102.673046
 31
0.0
  0
LINE
  5
12d
100
AcDbEntity
  8
Calque_2
 62
7
100
AcDbLine
 10
75.843349
 20
102.673046
 30
0.0
 11
75.843349
 21
87.728037
 31
0.0
  0
LINE
  5
12e
100
AcDbEntity
  8
Calque_2
 62
7
100
AcDbLine
 10
75.843349
 20
87.728037
 30
0.0
 11
60.898342
 21
87.728037
 31
0.0
  0
LINE
  5
12f
100
AcDbEntity
  8
Calque_2
 62
7
100
AcDbLine
 10
60.898342
 20
87.728037
 30
0.0
 11
60.898342
 21
102.673046
 31
0.0
  0
LINE
  5
130
100
AcDbEntity
  8
Calque_2
 62
7
100
AcDbLine
 10
79.825892
 20
102.673046
 30
0.0
 11
94.770900
 21
102.673046
 31
0.0
  0
LINE
  5
131
100
AcDbEntity
  8
Calque_2
 62
7
100
AcDbLine
 10
94.770900
 20
102.673046
 30
0.0
 11
94.770900
 21
87.728037
 31
0.0
  0
LINE
  5
132
100
AcDbEntity
  8
Calque_2
 62
7
100
AcDbLine
 10
94.770900
 20
87.728037
 30
0.0
 11
79.825892
 21
87.728037
 31
0.0
  0
LINE
  5
133
100
AcDbEntity
  8
Calque_2
 62
7
100
AcDbLine
 10
79.825892
 20
87.728037
 30
0.0
 11
79.825892
 21
102.673046
 31
0.0
  0
LINE
  5
134
100
AcDbEntity
  8
Calque_2
 62
7
100
AcDbLine
 10
98.753438
 20
102.673046
 30
0.0
 11
113.698446
 21
102.673046
 31
0.0
  0
LINE
  5
135
100
AcDbEntity
  8
Calque_2
 62
7
100
AcDbLine
 10
113.698446
 20
102.673046
 30
0.0
 11
113.698446
 21
87.728037
 31
0.0
  0
LINE
  5
136
100
AcDbEntity
  8
Calque_2
 62
7
100
AcDbLine
 10
113.698446
 20
87.728037
 30
0.0
 11
98.753438
 21
87.728037
 31
0.0
  0
LINE
  5
137
100
AcDbEntity
  8
Calque_2
 62
7
100
AcDbLine
 10
98.753438
 20
87.728037
 30
0.0
 11
98.753438
 21
102.673046
 31
0.0
  0
LINE
  5
138
100
AcDbEntity
  8
Calque_2
 62
7
100
AcDbLine
 10
117.680970
 20
102.673046
 30
0.0
 11
132.625978
 21
102.673046
 31
0.0
  0
LINE
  5
139
100
AcDbEntity
  8
Calque_2
 62
7
100
AcDbLine
 10
132.625978
 20
102.673046
 30
0.0
 11
132.625978
 21
87.728037
 31
0.0
  0
LINE
  5
13a
100
AcDbEntity
  8
Calque_2
 62
7
100
AcDbLine
 10
132.625978
 20
87.728037
 30
0.0
 11
117.680970
 21
87.728037
 31
0.0
  0
LINE
  5
13b
100
AcDbEntity
  8
Calque_2
 62
7
100
AcDbLine
 10
117.680970
 20
87.728037
 30
0.0
 11
117.680970
 21
102.673046
 31
0.0
  0
LINE
  5
13c
100
AcDbEntity
  8
Calque_2
 62
7
100
AcDbLine
 10
136.608532
 20
102.673046
 30
0.0
 11
151.553539
 21
102.673046
 31
0.0
  0
LINE
  5
13d
100
AcDbEntity
  8
Calque_2
 62
7
100
AcDbLine
 10
151.553539
 20
102.673046
 30
0.0
 11
151.553539
 21
87.728037
 31
0.0
  0
LINE
  5
13e
100
AcDbEntity
  8
Calque_2
 62
7
100
AcDbLine
 10
151.553539
 20
87.728037
 30
0.0
 11
136.608532
 21
87.728037
 31
0.0
  0
LINE
  5
13f
100
AcDbEntity
  8
Calque_2
 62
7
100
AcDbLine
 10
136.608532
 20
87.728037
 30
0.0
 11
136.608532
 21
102.673046
 31
0.0
  0
LINE
  5
140
100
AcDbEntity
  8
Calque_2
 62
7
100
AcDbLine
 10
155.536059
 20
102.673046
 30
0.0
 11
170.481066
 21
102.673046
 31
0.0
  0
LINE
  5
141
100
AcDbEntity
  8
Calque_2
 62
7
100
AcDbLine
 10
170.481066
 20
102.673046
 30
0.0
 11
170.481066
 21
87.728037
 31
0.0
  0
LINE
  5
142
100
AcDbEntity
  8
Calque_2
 62
7
100
AcDbLine
 10
170.481066
 20
87.728037
 30
0.0
 11
155.536059
 21
87.728037
 31
0.0
  0
LINE
  5
143
100
AcDbEntity
  8
Calque_2
 62
7
100
AcDbLine
 10
155.536059
 20
87.728037
 30
0.0
 11
155.536059
 21
102.673046
 31
0.0
  0
LINE
  5
144
100
AcDbEntity
  8
Calque_2
 62
7
100
AcDbLine
 10
174.463617
 20
102.673046
 30
0.0
 11
189.408625
 21
102.673046
 31
0.0
  0
LINE
  5
145
100
AcDbEntity
  8
Calque_2
 62
7
100
AcDbLine
 10
189.408625
 20
102.673046
 30
0.0
 11
189.408625
 21
87.728037
 31
0.0
  0
LINE
  5
146
100
AcDbEntity
  8
Calque_2
 62
7
100
AcDbLine
 10
189.408625
 20
87.728037
 30
0.0
 11
174.463617
 21
87.728037
 31
0.0
  0
LINE
  5
147
100
AcDbEntity
  8
Calque_2
 62
7
100
AcDbLine
 10
174.463617
 20
87.728037
 30
0.0
 11
174.463617
 21
102.673046
 31
0.0
  0
LINE
  5
148
100
AcDbEntity
  8
Calque_2
 62
7
100
AcDbLine
 10
193.391176
 20
102.673046
 30
0.0
 11
208.336184
 21
102.673046
 31
0.0
  0
LINE
  5
149
100
AcDbEntity
  8
Calque_2
 62
7
100
AcDbLine
 10
208.336184
 20
102.673046
 30
0.0
 11
208.336184
 21
87.728037
 31
0.0
  0
LINE
  5
14a
100
AcDbEntity
  8
Calque_2
 62
7
100
AcDbLine
 10
208.336184
 20
87.728037
 30
0.0
 11
193.391176
 21
87.728037
 31
0.0
  0
LINE
  5
14b
100
AcDbEntity
  8
Calque_2
 62
7
100
AcDbLine
 10
193.391176
 20
87.728037
 30
0.0
 11
193.391176
 21
102.673046
 31
0.0
  0
LINE
  5
14c
100
AcDbEntity
  8
Calque_2
 62
7
100
AcDbLine
 10
212.318703
 20
102.673046
 30
0.0
 11
227.263711
 21
102.673046
 31
0.0
  0
LINE
  5
14d
100
AcDbEntity
  8
Calque_2
 62
7
100
AcDbLine
 10
227.263711
 20
102.673046
 30
0.0
 11
227.263711
 21
87.728037
 31
0.0
  0
LINE
  5
14e
100
AcDbEntity
  8
Calque_2
 62
7
100
AcDbLine
 10
227.263711
 20
87.728037
 30
0.0
 11
212.318703
 21
87.728037
 31
0.0
  0
LINE
  5
14f
100
AcDbEntity
  8
Calque_2
 62
7
100
AcDbLine
 10
212.318703
 20
87.728037
 30
0.0
 11
212.318703
 21
102.673046
 31
0.0
  0
LINE
  5
150
100
AcDbEntity
  8
Calque_2
 62
7
100
AcDbLine
 10
231.246246
 20
102.643841
 30
0.0
 11
246.191254
 21
102.643841
 31
0.0
  0
LINE
  5
151
100
AcDbEntity
  8
Calque_2
 62
7
100
AcDbLine
 10
246.191254
 20
102.643841
 30
0.0
 11
246.191254
 21
87.698832
 31
0.0
  0
LINE
  5
152
100
AcDbEntity
  8
Calque_2
 62
7
100
AcDbLine
 10
246.191254
 20
87.698832
 30
0.0
 11
231.246246
 21
87.698832
 31
0.0
  0
LINE
  5
153
100
AcDbEntity
  8
Calque_2
 62
7
100
AcDbLine
 10
231.246246
 20
87.698832
 30
0.0
 11
231.246246
 21
102.643841
 31
0.0
  0
LINE
  5
154
100
AcDbEntity
  8
Calque_2
 62
7
100
AcDbLine
 10
70.691084
 20
83.714343
 30
0.0
 11
85.636092
 21
83.714343
 31
0.0
  0
LINE
  5
155
100
AcDbEntity
  8
Calque_2
 62
7
100
AcDbLine
 10
85.636092
 20
83.714343
 30
0.0
 11
85.636092
 21
68.769334
 31
0.0
  0
LINE
  5
156
100
AcDbEntity
  8
Calque_2
 62
7
100
AcDbLine
 10
85.636092
 20
68.769334
 30
0.0
 11
70.691084
 21
68.769334
 31
0.0
  0
LINE
  5
157
100
AcDbEntity
  8
Calque_2
 62
7
100
AcDbLine
 10
70.691084
 20
68.769334
 30
0.0
 11
70.691084
 21
83.714343
 31
0.0
  0
LINE
  5
158
100
AcDbEntity
  8
Calque_2
 62
7
100
AcDbLine
 10
89.618643
 20
83.714343
 30
0.0
 11
104.563651
 21
83.714343
 31
0.0
  0
LINE
  5
159
100
AcDbEntity
  8
Calque_2
 62
7
100
AcDbLine
 10
104.563651
 20
83.714343
 30
0.0
 11
104.563651
 21
68.769334
 31
0.0
  0
LINE
  5
15a
100
AcDbEntity
  8
Calque_2
 62
7
100
AcDbLine
 10
104.563651
 20
68.769334
 30
0.0
 11
89.618643
 21
68.769334
 31
0.0
  0
LINE
  5
15b
100
AcDbEntity
  8
Calque_2
 62
7
100
AcDbLine
 10
89.618643
 20
68.769334
 30
0.0
 11
89.618643
 21
83.714343
 31
0.0
  0
LINE
  5
15c
100
AcDbEntity
  8
Calque_2
 62
7
100
AcDbLine
 10
108.546194
 20
83.714343
 30
0.0
 11
123.491201
 21
83.714343
 31
0.0
  0
LINE
  5
15d
100
AcDbEntity
  8
Calque_2
 62
7
100
AcDbLine
 10
123.491201
 20
83.714343
 30
0.0
 11
123.491201
 21
68.769334
 31
0.0
  0
LINE
  5
15e
100
AcDbEntity
  8
Calque_2
 62
7
100
AcDbLine
 10
123.491201
 20
68.769334
 30
0.0
 11
108.546194
 21
68.769334
 31
0.0
  0
LINE
  5
15f
100
AcDbEntity
  8
Calque_2
 62
7
100
AcDbLine
 10
108.546194
 20
68.769334
 30
0.0
 11
108.546194
 21
83.714343
 31
0.0
  0
LINE
  5
160
100
AcDbEntity
  8
Calque_2
 62
7
100
AcDbLine
 10
127.473721
 20
83.714343
 30
0.0
 11
142.418728
 21
83.714343
 31
0.0
  0
LINE
  5
161
100
AcDbEntity
  8
Calque_2
 62
7
100
AcDbLine
 10
142.418728
 20
83.714343
 30
0.0
 11
142.418728
 21
68.769334
 31
0.0
  0
LINE
  5
162
100
AcDbEntity
  8
Calque_2
 62
7
100
AcDbLine
 10
142.418728
 20
68.769334
 30
0.0
 11
127.473721
 21
68.769334
 31
0.0
  0
LINE
  5
163
100
AcDbEntity
  8
Calque_2
 62
7
100
AcDbLine
 10
127.473721
 20
68.769334
 30
0.0
 11
127.473721
 21
83.714343
 31
0.0
  0
LINE
  5
164
100
AcDbEntity
  8
Calque_2
 62
7
100
AcDbLine
 10
146.401279
 20
83.714343
 30
0.0
 11
161.346287
 21
83.714343
 31
0.0
  0
LINE
  5
165
100
AcDbEntity
  8
Calque_2
 62
7
100
AcDbLine
 10
161.346287
 20
83.714343
 30
0.0
 11
161.346287
 21
68.769334
 31
0.0
  0
LINE
  5
166
100
AcDbEntity
  8
Calque_2
 62
7
100
AcDbLine
 10
161.346287
 20
68.769334
 30
0.0
 11
146.401279
 21
68.769334
 31
0.0
  0
LINE
  5
167
100
AcDbEntity
  8
Calque_2
 62
7
100
AcDbLine
 10
146.401279
 20
68.769334
 30
0.0
 11
146.401279
 21
83.714343
 31
0.0
  0
LINE
  5
168
100
AcDbEntity
  8
Calque_2
 62
7
100
AcDbLine
 10
165.328806
 20
83.714343
 30
0.0
 11
180.273814
 21
83.714343
 31
0.0
  0
LINE
  5
169
100
AcDbEntity
  8
Calque_2
 62
7
100
AcDbLine
 10
180.273814
 20
83.714343
 30
0.0
 11
180.273814
 21
68.769334
 31
0.0
  0
LINE
  5
16a
100
AcDbEntity
  8
Calque_2
 62
7
100
AcDbLine
 10
180.273814
 20
68.769334
 30
0.0
 11
165.328806
 21
68.769334
 31
0.0
  0
LINE
  5
16b
100
AcDbEntity
  8
Calque_2
 62
7
100
AcDbLine
 10
165.328806
 20
68.769334
 30
0.0
 11
165.328806
 21
83.714343
 31
0.0
  0
LINE
  5
16c
100
AcDbEntity
  8
Calque_2
 62
7
100
AcDbLine
 10
184.256365
 20
83.714343
 30
0.0
 11
199.201373
 21
83.714343
 31
0.0
  0
LINE
  5
16d
100
AcDbEntity
  8
Calque_2
 62
7
100
AcDbLine
 10
199.201373
 20
83.714343
 30
0.0
 11
199.201373
 21
68.769334
 31
0.0
  0
LINE
  5
16e
100
AcDbEntity
  8
Calque_2
 62
7
100
AcDbLine
 10
199.201373
 20
68.769334
 30
0.0
 11
184.256365
 21
68.769334
 31
0.0
  0
LINE
  5
16f
100
AcDbEntity
  8
Calque_2
 62
7
100
AcDbLine
 10
184.256365
 20
68.769334
 30
0.0
 11
184.256365
 21
83.714343
 31
0.0
  0
LINE
  5
170
100
AcDbEntity
  8
Calque_2
 62
7
100
AcDbLine
 10
203.183924
 20
83.714343
 30
0.0
 11
218.128932
 21
83.714343
 31
0.0
  0
LINE
  5
171
100
AcDbEntity
  8
Calque_2
 62
7
100
AcDbLine
 10
218.128932
 20
83.714343
 30
0.0
 11
218.128932
 21
68.769334
 31
0.0
  0
LINE
  5
172
100
AcDbEntity
  8
Calque_2
 62
7
100
AcDbLine
 10
218.128932
 20
68.769334
 30
0.0
 11
203.183924
 21
68.769334
 31
0.0
  0
LINE
  5
173
100
AcDbEntity
  8
Calque_2
 62
7
100
AcDbLine
 10
203.183924
 20
68.769334
 30
0.0
 11
203.183924
 21
83.714343
 31
0.0
  0
LINE
  5
174
100
AcDbEntity
  8
Calque_2
 62
7
100
AcDbLine
 10
222.111451
 20
83.714343
 30
0.0
 11
237.056459
 21
83.714343
 31
0.0
  0
LINE
  5
175
100
AcDbEntity
  8
Calque_2
 62
7
100
AcDbLine
 10
237.056459
 20
83.714343
 30
0.0
 11
237.056459
 21
68.769334
 31
0.0
  0
LINE
  5
176
100
AcDbEntity
  8
Calque_2
 62
7
100
AcDbLine
 10
237.056459
 20
68.769334
 30
0.0
 11
222.111451
 21
68.769334
 31
0.0
  0
LINE
  5
177
100
AcDbEntity
  8
Calque_2
 62
7
100
AcDbLine
 10
222.111451
 20
68.769334
 30
0.0
 11
222.111451
 21
83.714343
 31
0.0
  0
LINE
  5
178
100
AcDbEntity
  8
Calque_2
 62
7
100
AcDbLine
 10
241.038986
 20
83.685138
 30
0.0
 11
255.983994
 21
83.685138
 31
0.0
  0
LINE
  5
179
100
AcDbEntity
  8
Calque_2
 62
7
100
AcDbLine
 10
255.983994
 20
83.685138
 30
0.0
 11
255.983994
 21
68.740129
 31
0.0
  0
LINE
  5
17a
100
AcDbEntity
  8
Calque_2
 62
7
100
AcDbLine
 10
255.983994
 20
68.740129
 30
0.0
 11
241.038986
 21
68.740129
 31
0.0
  0
LINE
  5
17b
100
AcDbEntity
  8
Calque_2
 62
7
100
AcDbLine
 10
241.038986
 20
68.740129
 30
0.0
 11
241.038986
 21
83.685138
 31
0.0
  0
LINE
  5
17c
100
AcDbEntity
  8
Calque_2
 62
7
100
AcDbLine
 10
56.414950
 20
64.862992
 30
0.0
 11
71.859050
 21
64.862992
 31
0.0
  0
LINE
  5
17d
100
AcDbEntity
  8
Calque_2
 62
7
100
AcDbLine
 10
71.859050
 20
64.862992
 30
0.0
 11
71.859050
 21
49.918893
 31
0.0
  0
LINE
  5
17e
100
AcDbEntity
  8
Calque_2
 62
7
100
AcDbLine
 10
71.859050
 20
49.918893
 30
0.0
 11
56.414950
 21
49.918893
 31
0.0
  0
LINE
  5
17f
100
AcDbEntity
  8
Calque_2
 62
7
100
AcDbLine
 10
56.414950
 20
49.918893
 30
0.0
 11
56.414950
 21
64.862992
 31
0.0
  0
LINE
  5
180
100
AcDbEntity
  8
Calque_2
 62
7
100
AcDbLine
 10
75.841924
 20
64.863444
 30
0.0
 11
90.786931
 21
64.863444
 31
0.0
  0
LINE
  5
181
100
AcDbEntity
  8
Calque_2
 62
7
100
AcDbLine
 10
90.786931
 20
64.863444
 30
0.0
 11
90.786931
 21
49.918436
 31
0.0
  0
LINE
  5
182
100
AcDbEntity
  8
Calque_2
 62
7
100
AcDbLine
 10
90.786931
 20
49.918436
 30
0.0
 11
75.841924
 21
49.918436
 31
0.0
  0
LINE
  5
183
100
AcDbEntity
  8
Calque_2
 62
7
100
AcDbLine
 10
75.841924
 20
49.918436
 30
0.0
 11
75.841924
 21
64.863444
 31
0.0
  0
LINE
  5
184
100
AcDbEntity
  8
Calque_2
 62
7
100
AcDbLine
 10
94.769482
 20
64.863444
 30
0.0
 11
109.714490
 21
64.863444
 31
0.0
  0
LINE
  5
185
100
AcDbEntity
  8
Calque_2
 62
7
100
AcDbLine
 10
109.714490
 20
64.863444
 30
0.0
 11
109.714490
 21
49.918436
 31
0.0
  0
LINE
  5
186
100
AcDbEntity
  8
Calque_2
 62
7
100
AcDbLine
 10
109.714490
 20
49.918436
 30
0.0
 11
94.769482
 21
49.918436
 31
0.0
  0
LINE
  5
187
100
AcDbEntity
  8
Calque_2
 62
7
100
AcDbLine
 10
94.769482
 20
49.918436
 30
0.0
 11
94.769482
 21
64.863444
 31
0.0
  0
LINE
  5
188
100
AcDbEntity
  8
Calque_2
 62
7
100
AcDbLine
 10
113.697041
 20
64.863444
 30
0.0
 11
128.642049
 21
64.863444
 31
0.0
  0
LINE
  5
189
100
AcDbEntity
  8
Calque_2
 62
7
100
AcDbLine
 10
128.642049
 20
64.863444
 30
0.0
 11
128.642049
 21
49.918436
 31
0.0
  0
LINE
  5
18a
100
AcDbEntity
  8
Calque_2
 62
7
100
AcDbLine
 10
128.642049
 20
49.918436
 30
0.0
 11
113.697041
 21
49.918436
 31
0.0
  0
LINE
  5
18b
100
AcDbEntity
  8
Calque_2
 62
7
100
AcDbLine
 10
113.697041
 20
49.918436
 30
0.0
 11
113.697041
 21
64.863444
 31
0.0
  0
LINE
  5
18c
100
AcDbEntity
  8
Calque_2
 62
7
100
AcDbLine
 10
132.624568
 20
64.863444
 30
0.0
 11
147.569576
 21
64.863444
 31
0.0
  0
LINE
  5
18d
100
AcDbEntity
  8
Calque_2
 62
7
100
AcDbLine
 10
147.569576
 20
64.863444
 30
0.0
 11
147.569576
 21
49.918436
 31
0.0
  0
LINE
  5
18e
100
AcDbEntity
  8
Calque_2
 62
7
100
AcDbLine
 10
147.569576
 20
49.918436
 30
0.0
 11
132.624568
 21
49.918436
 31
0.0
  0
LINE
  5
18f
100
AcDbEntity
  8
Calque_2
 62
7
100
AcDbLine
 10
132.624568
 20
49.918436
 30
0.0
 11
132.624568
 21
64.863444
 31
0.0
  0
LINE
  5
190
100
AcDbEntity
  8
Calque_2
 62
7
100
AcDbLine
 10
151.552127
 20
64.863444
 30
0.0
 11
166.497135
 21
64.863444
 31
0.0
  0
LINE
  5
191
100
AcDbEntity
  8
Calque_2
 62
7
100
AcDbLine
 10
166.497135
 20
64.863444
 30
0.0
 11
166.497135
 21
49.918436
 31
0.0
  0
LINE
  5
192
100
AcDbEntity
  8
Calque_2
 62
7
100
AcDbLine
 10
166.497135
 20
49.918436
 30
0.0
 11
151.552127
 21
49.918436
 31
0.0
  0
LINE
  5
193
100
AcDbEntity
  8
Calque_2
 62
7
100
AcDbLine
 10
151.552127
 20
49.918436
 30
0.0
 11
151.552127
 21
64.863444
 31
0.0
  0
LINE
  5
194
100
AcDbEntity
  8
Calque_2
 62
7
100
AcDbLine
 10
170.479654
 20
64.863444
 30
0.0
 11
185.424662
 21
64.863444
 31
0.0
  0
LINE
  5
195
100
AcDbEntity
  8
Calque_2
 62
7
100
AcDbLine
 10
185.424662
 20
64.863444
 30
0.0
 11
185.424662
 21
49.918436
 31
0.0
  0
LINE
  5
196
100
AcDbEntity
  8
Calque_2
 62
7
100
AcDbLine
 10
185.424662
 20
49.918436
 30
0.0
 11
170.479654
 21
49.918436
 31
0.0
  0
LINE
  5
197
100
AcDbEntity
  8
Calque_2
 62
7
100
AcDbLine
 10
170.479654
 20
49.918436
 30
0.0
 11
170.479654
 21
64.863444
 31
0.0
  0
LINE
  5
198
100
AcDbEntity
  8
Calque_2
 62
7
100
AcDbLine
 10
189.407213
 20
64.863444
 30
0.0
 11
204.352220
 21
64.863444
 31
0.0
  0
LINE
  5
199
100
AcDbEntity
  8
Calque_2
 62
7
100
AcDbLine
 10
204.352220
 20
64.863444
 30
0.0
 11
204.352220
 21
49.918436
 31
0.0
  0
LINE
  5
19a
100
AcDbEntity
  8
Calque_2
 62
7
100
AcDbLine
 10
204.352220
 20
49.918436
 30
0.0
 11
189.407213
 21
49.918436
 31
0.0
  0
LINE
  5
19b
100
AcDbEntity
  8
Calque_2
 62
7
100
AcDbLine
 10
189.407213
 20
49.918436
 30
0.0
 11
189.407213
 21
64.863444
 31
0.0
  0
LINE
  5
19c
100
AcDbEntity
  8
Calque_2
 62
7
100
AcDbLine
 10
208.334771
 20
64.863444
 30
0.0
 11
223.279779
 21
64.863444
 31
0.0
  0
LINE
  5
19d
100
AcDbEntity
  8
Calque_2
 62
7
100
AcDbLine
 10
223.279779
 20
64.863444
 30
0.0
 11
223.279779
 21
49.918436
 31
0.0
  0
LINE
  5
19e
100
AcDbEntity
  8
Calque_2
 62
7
100
AcDbLine
 10
223.279779
 20
49.918436
 30
0.0
 11
208.334771
 21
49.918436
 31
0.0
  0
LINE
  5
19f
100
AcDbEntity
  8
Calque_2
 62
7
100
AcDbLine
 10
208.334771
 20
49.918436
 30
0.0
 11
208.334771
 21
64.863444
 31
0.0
  0
LINE
  5
1a0
100
AcDbEntity
  8
Calque_2
 62
7
100
AcDbLine
 10
227.262298
 20
64.863444
 30
0.0
 11
242.207306
 21
64.863444
 31
0.0
  0
LINE
  5
1a1
100
AcDbEntity
  8
Calque_2
 62
7
100
AcDbLine
 10
242.207306
 20
64.863444
 30
0.0
 11
242.207306
 21
49.918436
 31
0.0
  0
LINE
  5
1a2
100
AcDbEntity
  8
Calque_2
 62
7
100
AcDbLine
 10
242.207306
 20
49.918436
 30
0.0
 11
227.262298
 21
49.918436
 31
0.0
  0
LINE
  5
1a3
100
AcDbEntity
  8
Calque_2
 62
7
100
AcDbLine
 10
227.262298
 20
49.918436
 30
0.0
 11
227.262298
 21
64.863444
 31
0.0
  0
LINE
  5
1a4
100
AcDbEntity
  8
Calque_2
 62
7
100
AcDbLine
 10
246.189815
 20
64.834229
 30
0.0
 11
261.134823
 21
64.834229
 31
0.0
  0
LINE
  5
1a5
100
AcDbEntity
  8
Calque_2
 62
7
100
AcDbLine
 10
261.134823
 20
64.834229
 30
0.0
 11
261.134823
 21
49.889220
 31
0.0
  0
LINE
  5
1a6
100
AcDbEntity
  8
Calque_2
 62
7
100
AcDbLine
 10
261.134823
 20
49.889220
 30
0.0
 11
246.189815
 21
49.889220
 31
0.0
  0
LINE
  5
1a7
100
AcDbEntity
  8
Calque_2
 62
7
100
AcDbLine
 10
246.189815
 20
49.889220
 30
0.0
 11
246.189815
 21
64.834229
 31
0.0
  0
LINE
  5
1a8
100
AcDbEntity
  8
Calque_2
 62
7
100
AcDbLine
 10
46.610164
 20
45.952970
 30
0.0
 11
61.555172
 21
45.952970
 31
0.0
  0
LINE
  5
1a9
100
AcDbEntity
  8
Calque_2
 62
7
100
AcDbLine
 10
61.555172
 20
45.952970
 30
0.0
 11
61.555172
 21
31.007961
 31
0.0
  0
LINE
  5
1aa
100
AcDbEntity
  8
Calque_2
 62
7
100
AcDbLine
 10
61.555172
 20
31.007961
 30
0.0
 11
46.610164
 21
31.007961
 31
0.0
  0
LINE
  5
1ab
100
AcDbEntity
  8
Calque_2
 62
7
100
AcDbLine
 10
46.610164
 20
31.007961
 30
0.0
 11
46.610164
 21
45.952970
 31
0.0
  0
LINE
  5
1ac
100
AcDbEntity
  8
Calque_2
 62
7
100
AcDbLine
 10
65.537723
 20
45.952970
 30
0.0
 11
80.482731
 21
45.952970
 31
0.0
  0
LINE
  5
1ad
100
AcDbEntity
  8
Calque_2
 62
7
100
AcDbLine
 10
80.482731
 20
45.952970
 30
0.0
 11
80.482731
 21
31.007961
 31
0.0
  0
LINE
  5
1ae
100
AcDbEntity
  8
Calque_2
 62
7
100
AcDbLine
 10
80.482731
 20
31.007961
 30
0.0
 11
65.537723
 21
31.007961
 31
0.0
  0
LINE
  5
1af
100
AcDbEntity
  8
Calque_2
 62
7
100
AcDbLine
 10
65.537723
 20
31.007961
 30
0.0
 11
65.537723
 21
45.952970
 31
0.0
  0
LINE
  5
1b0
100
AcDbEntity
  8
Calque_2
 62
7
100
AcDbLine
 10
84.465266
 20
45.952970
 30
0.0
 11
99.410274
 21
45.952970
 31
0.0
  0
LINE
  5
1b1
100
AcDbEntity
  8
Calque_2
 62
7
100
AcDbLine
 10
99.410274
 20
45.952970
 30
0.0
 11
99.410274
 21
31.007961
 31
0.0
  0
LINE
  5
1b2
100
AcDbEntity
  8
Calque_2
 62
7
100
AcDbLine
 10
99.410274
 20
31.007961
 30
0.0
 11
84.465266
 21
31.007961
 31
0.0
  0
LINE
  5
1b3
100
AcDbEntity
  8
Calque_2
 62
7
100
AcDbLine
 10
84.465266
 20
31.007961
 30
0.0
 11
84.465266
 21
45.952970
 31
0.0
  0
LINE
  5
1b4
100
AcDbEntity
  8
Calque_2
 62
7
100
AcDbLine
 10
103.393277
 20
45.952517
 30
0.0
 11
118.837376
 21
45.952517
 31
0.0
  0
LINE
  5
1b5
100
AcDbEntity
  8
Calque_2
 62
7
100
AcDbLine
 10
118.837376
 20
45.952517
 30
0.0
 11
118.837376
 21
31.008418
 31
0.0
  0
LINE
  5
1b6
100
AcDbEntity
  8
Calque_2
 62
7
100
AcDbLine
 10
118.837376
 20
31.008418
 30
0.0
 11
103.393277
 21
31.008418
 31
0.0
  0
LINE
  5
1b7
100
AcDbEntity
  8
Calque_2
 62
7
100
AcDbLine
 10
103.393277
 20
31.008418
 30
0.0
 11
103.393277
 21
45.952517
 31
0.0
  0
LINE
  5
1b8
100
AcDbEntity
  8
Calque_2
 62
7
100
AcDbLine
 10
122.320836
 20
45.952517
 30
0.0
 11
137.764935
 21
45.952517
 31
0.0
  0
LINE
  5
1b9
100
AcDbEntity
  8
Calque_2
 62
7
100
AcDbLine
 10
137.764935
 20
45.952517
 30
0.0
 11
137.764935
 21
31.008418
 31
0.0
  0
LINE
  5
1ba
100
AcDbEntity
  8
Calque_2
 62
7
100
AcDbLine
 10
137.764935
 20
31.008418
 30
0.0
 11
122.320836
 21
31.008418
 31
0.0
  0
LINE
  5
1bb
100
AcDbEntity
  8
Calque_2
 62
7
100
AcDbLine
 10
122.320836
 20
31.008418
 30
0.0
 11
122.320836
 21
45.952517
 31
0.0
  0
LINE
  5
1bc
100
AcDbEntity
  8
Calque_2
 62
7
100
AcDbLine
 10
141.248363
 20
45.952517
 30
0.0
 11
156.692462
 21
45.952517
 31
0.0
  0
LINE
  5
1bd
100
AcDbEntity
  8
Calque_2
 62
7
100
AcDbLine
 10
156.692462
 20
45.952517
 30
0.0
 11
156.692462
 21
31.008418
 31
0.0
  0
LINE
  5
1be
100
AcDbEntity
  8
Calque_2
 62
7
100
AcDbLine
 10
156.692462
 20
31.008418
 30
0.0
 11
141.248363
 21
31.008418
 31
0.0
  0
LINE
  5
1bf
100
AcDbEntity
  8
Calque_2
 62
7
100
AcDbLine
 10
141.248363
 20
31.008418
 30
0.0
 11
141.248363
 21
45.952517
 31
0.0
  0
LINE
  5
1c0
100
AcDbEntity
  8
Calque_2
 62
7
100
AcDbLine
 10
160.175906
 20
45.952517
 30
0.0
 11
175.620005
 21
45.952517
 31
0.0
  0
LINE
  5
1c1
100
AcDbEntity
  8
Calque_2
 62
7
100
AcDbLine
 10
175.620005
 20
45.952517
 30
0.0
 11
175.620005
 21
31.008418
 31
0.0
  0
LINE
  5
1c2
100
AcDbEntity
  8
Calque_2
 62
7
100
AcDbLine
 10
175.620005
 20
31.008418
 30
0.0
 11
160.175906
 21
31.008418
 31
0.0
  0
LINE
  5
1c3
100
AcDbEntity
  8
Calque_2
 62
7
100
AcDbLine
 10
160.175906
 20
31.008418
 30
0.0
 11
160.175906
 21
45.952517
 31
0.0
  0
LINE
  5
1c4
100
AcDbEntity
  8
Calque_2
 62
7
100
AcDbLine
 10
179.103467
 20
45.952517
 30
0.0
 11
194.547566
 21
45.952517
 31
0.0
  0
LINE
  5
1c5
100
AcDbEntity
  8
Calque_2
 62
7
100
AcDbLine
 10
194.547566
 20
45.952517
 30
0.0
 11
194.547566
 21
31.008418
 31
0.0
  0
LINE
  5
1c6
100
AcDbEntity
  8
Calque_2
 62
7
100
AcDbLine
 10
194.547566
 20
31.008418
 30
0.0
 11
179.103467
 21
31.008418
 31
0.0
  0
LINE
  5
1c7
100
AcDbEntity
  8
Calque_2
 62
7
100
AcDbLine
 10
179.103467
 20
31.008418
 30
0.0
 11
179.103467
 21
45.952517
 31
0.0
  0
LINE
  5
1c8
100
AcDbEntity
  8
Calque_2
 62
7
100
AcDbLine
 10
198.030992
 20
45.952517
 30
0.0
 11
213.475091
 21
45.952517
 31
0.0
  0
LINE
  5
1c9
100
AcDbEntity
  8
Calque_2
 62
7
100
AcDbLine
 10
213.475091
 20
45.952517
 30
0.0
 11
213.475091
 21
31.008418
 31
0.0
  0
LINE
  5
1ca
100
AcDbEntity
  8
Calque_2
 62
7
100
AcDbLine
 10
213.475091
 20
31.008418
 30
0.0
 11
198.030992
 21
31.008418
 31
0.0
  0
LINE
  5
1cb
100
AcDbEntity
  8
Calque_2
 62
7
100
AcDbLine
 10
198.030992
 20
31.008418
 30
0.0
 11
198.030992
 21
45.952517
 31
0.0
  0
LINE
  5
1cc
100
AcDbEntity
  8
Calque_2
 62
7
100
AcDbLine
 10
216.958553
 20
45.952517
 30
0.0
 11
232.402652
 21
45.952517
 31
0.0
  0
LINE
  5
1cd
100
AcDbEntity
  8
Calque_2
 62
7
100
AcDbLine
 10
232.402652
 20
45.952517
 30
0.0
 11
232.402652
 21
31.008418
 31
0.0
  0
LINE
  5
1ce
100
AcDbEntity
  8
Calque_2
 62
7
100
AcDbLine
 10
232.402652
 20
31.008418
 30
0.0
 11
216.958553
 21
31.008418
 31
0.0
  0
LINE
  5
1cf
100
AcDbEntity
  8
Calque_2
 62
7
100
AcDbLine
 10
216.958553
 20
31.008418
 30
0.0
 11
216.958553
 21
45.952517
 31
0.0
  0
LINE
  5
1d0
100
AcDbEntity
  8
Calque_2
 62
7
100
AcDbLine
 10
56.452950
 20
26.985562
 30
0.0
 11
71.897049
 21
26.985562
 31
0.0
  0
LINE
  5
1d1
100
AcDbEntity
  8
Calque_2
 62
7
100
AcDbLine
 10
71.897049
 20
26.985562
 30
0.0
 11
71.897049
 21
12.041463
 31
0.0
  0
LINE
  5
1d2
100
AcDbEntity
  8
Calque_2
 62
7
100
AcDbLine
 10
71.897049
 20
12.041463
 30
0.0
 11
56.452950
 21
12.041463
 31
0.0
  0
LINE
  5
1d3
100
AcDbEntity
  8
Calque_2
 62
7
100
AcDbLine
 10
56.452950
 20
12.041463
 30
0.0
 11
56.452950
 21
26.985562
 31
0.0
  0
LINE
  5
1d4
100
AcDbEntity
  8
Calque_2
 62
7
100
AcDbLine
 10
217.458957
 20
27.024967
 30
0.0
 11
232.903056
 21
27.024967
 31
0.0
  0
LINE
  5
1d5
100
AcDbEntity
  8
Calque_2
 62
7
100
AcDbLine
 10
232.903056
 20
27.024967
 30
0.0
 11
232.903056
 21
12.080867
 31
0.0
  0
LINE
  5
1d6
100
AcDbEntity
  8
Calque_2
 62
7
100
AcDbLine
 10
232.903056
 20
12.080867
 30
0.0
 11
217.458957
 21
12.080867
 31
0.0
  0
LINE
  5
1d7
100
AcDbEntity
  8
Calque_2
 62
7
100
AcDbLine
 10
217.458957
 20
12.080867
 30
0.0
 11
217.458957
 21
27.024967
 31
0.0
  0
LINE
  5
1d8
100
AcDbEntity
  8
Calque_2
 62
7
100
AcDbLine
 10
74.888161
 20
27.007478
 30
0.0
 11
176.165944
 21
27.007478
 31
0.0
  0
LINE
  5
1d9
100
AcDbEntity
  8
Calque_2
 62
7
100
AcDbLine
 10
176.165944
 20
27.007478
 30
0.0
 11
176.165944
 21
12.049035
 31
0.0
  0
LINE
  5
1da
100
AcDbEntity
  8
Calque_2
 62
7
100
AcDbLine
 10
176.165944
 20
12.049035
 30
0.0
 11
74.888161
 21
12.049035
 31
0.0
  0
LINE
  5
1db
100
AcDbEntity
  8
Calque_2
 62
7
100
AcDbLine
 10
74.888161
 20
12.049035
 30
0.0
 11
74.888161
 21
27.007478
 31
0.0
  0
LINE
  5
1dc
100
AcDbEntity
  8
Calque_2
 62
7
100
AcDbLine
 10
235.886437
 20
45.952211
 30
0.0
 11
285.286606
 21
45.952211
 31
0.0
  0
LINE
  5
1dd
100
AcDbEntity
  8
Calque_2
 62
7
100
AcDbLine
 10
285.286606
 20
45.952211
 30
0.0
 11
285.286606
 21
31.052040
 31
0.0
  0
LINE
  5
1de
100
AcDbEntity
  8
Calque_2
 62
7
100
AcDbLine
 10
285.286606
 20
31.052040
 30
0.0
 11
235.886437
 21
31.052040
 31
0.0
  0
LINE
  5
1df
100
AcDbEntity
  8
Calque_2
 62
7
100
AcDbLine
 10
235.886437
 20
31.052040
 30
0.0
 11
235.886437
 21
45.952211
 31
0.0
  0
LINE
  5
1e0
100
AcDbEntity
  8
Calque_2
 62
7
100
AcDbLine
 10
250.166132
 20
102.651519
 30
0.0
 11
285.082157
 21
102.651519
 31
0.0
  0
LINE
  5
1e1
100
AcDbEntity
  8
Calque_2
 62
7
100
AcDbLine
 10
285.082157
 20
102.651519
 30
0.0
 11
285.082157
 21
87.735491
 31
0.0
  0
LINE
  5
1e2
100
AcDbEntity
  8
Calque_2
 62
7
100
AcDbLine
 10
285.082157
 20
87.735491
 30
0.0
 11
250.166132
 21
87.735491
 31
0.0
  0
LINE
  5
1e3
100
AcDbEntity
  8
Calque_2
 62
7
100
AcDbLine
 10
250.166132
 20
87.735491
 30
0.0
 11
250.166132
 21
102.651519
 31
0.0
  0
LINE
  5
1e4
100
AcDbEntity
  8
Calque_2
 62
7
100
AcDbLine
 10
259.966805
 20
83.684864
 30
0.0
 11
285.087221
 21
83.752377
 31
0.0
  0
LINE
  5
1e5
100
AcDbEntity
  8
Calque_2
 62
7
100
AcDbLine
 10
259.966805
 20
83.684864
 30
0.0
 11
259.966805
 21
68.740096
 31
0.0
  0
LINE
  5
1e6
100
AcDbEntity
  8
Calque_2
 62
7
100
AcDbLine
 10
259.966805
 20
68.740096
 30
0.0
 11
265.199346
 21
68.740096
 31
0.0
  0
LINE
  5
1e7
100
AcDbEntity
  8
Calque_2
 62
7
100
AcDbLine
 10
265.199346
 20
68.740096
 30
0.0
 11
265.221208
 21
49.889496
 31
0.0
  0
LINE
  5
1e8
100
AcDbEntity
  8
Calque_2
 62
7
100
AcDbLine
 10
265.221208
 20
49.889496
 30
0.0
 11
285.286221
 21
49.935276
 31
0.0
  0
LINE
  5
1e9
100
AcDbEntity
  8
Calque_2
 62
7
100
AcDbLine
 10
285.087221
 20
83.752377
 30
0.0
 11
285.286221
 21
49.935276
 31
0.0
  0
LINE
  5
1ea
100
AcDbEntity
  8
Calque_2
 62
7
100
AcDbLine
 10
3.601241
 20
116.111468
 30
0.0
 11
19.056759
 21
116.111468
 31
0.0
  0
LINE
  5
1eb
100
AcDbEntity
  8
Calque_2
 62
7
100
AcDbLine
 10
19.056759
 20
116.111468
 30
0.0
 11
19.056759
 21
106.655950
 31
0.0
  0
LINE
  5
1ec
100
AcDbEntity
  8
Calque_2
 62
7
100
AcDbLine
 10
19.056759
 20
106.655950
 30
0.0
 11
3.601241
 21
106.655950
 31
0.0
  0
LINE
  5
1ed
100
AcDbEntity
  8
Calque_2
 62
7
100
AcDbLine
 10
3.601241
 20
106.655950
 30
0.0
 11
3.601241
 21
116.111468
 31
0.0
  0
LINE
  5
1ee
100
AcDbEntity
  8
Calque_2
 62
7
100
AcDbLine
 10
23.043237
 20
116.111831
 30
0.0
 11
37.999478
 21
116.111831
 31
0.0
  0
LINE
  5
1ef
100
AcDbEntity
  8
Calque_2
 62
7
100
AcDbLine
 10
37.999478
 20
116.111831
 30
0.0
 11
37.999478
 21
106.655591
 31
0.0
  0
LINE
  5
1f0
100
AcDbEntity
  8
Calque_2
 62
7
100
AcDbLine
 10
37.999478
 20
106.655591
 30
0.0
 11
23.043237
 21
106.655591
 31
0.0
  0
LINE
  5
1f1
100
AcDbEntity
  8
Calque_2
 62
7
100
AcDbLine
 10
23.043237
 20
106.655591
 30
0.0
 11
23.043237
 21
116.111831
 31
0.0
  0
LINE
  5
1f2
100
AcDbEntity
  8
Calque_2
 62
7
100
AcDbLine
 10
41.970783
 20
116.111831
 30
0.0
 11
56.927023
 21
116.111831
 31
0.0
  0
LINE
  5
1f3
100
AcDbEntity
  8
Calque_2
 62
7
100
AcDbLine
 10
56.927023
 20
116.111831
 30
0.0
 11
56.927023
 21
106.655591
 31
0.0
  0
LINE
  5
1f4
100
AcDbEntity
  8
Calque_2
 62
7
100
AcDbLine
 10
56.927023
 20
106.655591
 30
0.0
 11
41.970783
 21
106.655591
 31
0.0
  0
LINE
  5
1f5
100
AcDbEntity
  8
Calque_2
 62
7
100
AcDbLine
 10
41.970783
 20
106.655591
 30
0.0
 11
41.970783
 21
116.111831
 31
0.0
  0
LINE
  5
1f6
100
AcDbEntity
  8
Calque_2
 62
7
100
AcDbLine
 10
60.898334
 20
116.111831
 30
0.0
 11
75.854574
 21
116.111831
 31
0.0
  0
LINE
  5
1f7
100
AcDbEntity
  8
Calque_2
 62
7
100
AcDbLine
 10
75.854574
 20
116.111831
 30
0.0
 11
75.854574
 21
106.655591
 31
0.0
  0
LINE
  5
1f8
100
AcDbEntity
  8
Calque_2
 62
7
100
AcDbLine
 10
75.854574
 20
106.655591
 30
0.0
 11
60.898334
 21
106.655591
 31
0.0
  0
LINE
  5
1f9
100
AcDbEntity
  8
Calque_2
 62
7
100
AcDbLine
 10
60.898334
 20
106.655591
 30
0.0
 11
60.898334
 21
116.111831
 31
0.0
  0
LINE
  5
1fa
100
AcDbEntity
  8
Calque_2
 62
7
100
AcDbLine
 10
79.825892
 20
116.111831
 30
0.0
 11
94.782133
 21
116.111831
 31
0.0
  0
LINE
  5
1fb
100
AcDbEntity
  8
Calque_2
 62
7
100
AcDbLine
 10
94.782133
 20
116.111831
 30
0.0
 11
94.782133
 21
106.655591
 31
0.0
  0
LINE
  5
1fc
100
AcDbEntity
  8
Calque_2
 62
7
100
AcDbLine
 10
94.782133
 20
106.655591
 30
0.0
 11
79.825892
 21
106.655591
 31
0.0
  0
LINE
  5
1fd
100
AcDbEntity
  8
Calque_2
 62
7
100
AcDbLine
 10
79.825892
 20
106.655591
 30
0.0
 11
79.825892
 21
116.111831
 31
0.0
  0
LINE
  5
1fe
100
AcDbEntity
  8
Calque_2
 62
7
100
AcDbLine
 10
98.753438
 20
116.111831
 30
0.0
 11
113.709678
 21
116.111831
 31
0.0
  0
LINE
  5
1ff
100
AcDbEntity
  8
Calque_2
 62
7
100
AcDbLine
 10
113.709678
 20
116.111831
 30
0.0
 11
113.709678
 21
106.655591
 31
0.0
  0
LINE
  5
200
100
AcDbEntity
  8
Calque_2
 62
7
100
AcDbLine
 10
113.709678
 20
106.655591
 30
0.0
 11
98.753438
 21
106.655591
 31
0.0
  0
LINE
  5
201
100
AcDbEntity
  8
Calque_2
 62
7
100
AcDbLine
 10
98.753438
 20
106.655591
 30
0.0
 11
98.753438
 21
116.111831
 31
0.0
  0
LINE
  5
202
100
AcDbEntity
  8
Calque_2
 62
7
100
AcDbLine
 10
117.680970
 20
116.111831
 30
0.0
 11
132.637211
 21
116.111831
 31
0.0
  0
LINE
  5
203
100
AcDbEntity
  8
Calque_2
 62
7
100
AcDbLine
 10
132.637211
 20
116.111831
 30
0.0
 11
132.637211
 21
106.655591
 31
0.0
  0
LINE
  5
204
100
AcDbEntity
  8
Calque_2
 62
7
100
AcDbLine
 10
132.637211
 20
106.655591
 30
0.0
 11
117.680970
 21
106.655591
 31
0.0
  0
LINE
  5
205
100
AcDbEntity
  8
Calque_2
 62
7
100
AcDbLine
 10
117.680970
 20
106.655591
 30
0.0
 11
117.680970
 21
116.111831
 31
0.0
  0
LINE
  5
206
100
AcDbEntity
  8
Calque_2
 62
7
100
AcDbLine
 10
136.608532
 20
116.111831
 30
0.0
 11
151.564772
 21
116.111831
 31
0.0
  0
LINE
  5
207
100
AcDbEntity
  8
Calque_2
 62
7
100
AcDbLine
 10
151.564772
 20
116.111831
 30
0.0
 11
151.564772
 21
106.655591
 31
0.0
  0
LINE
  5
208
100
AcDbEntity
  8
Calque_2
 62
7
100
AcDbLine
 10
151.564772
 20
106.655591
 30
0.0
 11
136.608532
 21
106.655591
 31
0.0
  0
LINE
  5
209
100
AcDbEntity
  8
Calque_2
 62
7
100
AcDbLine
 10
136.608532
 20
106.655591
 30
0.0
 11
136.608532
 21
116.111831
 31
0.0
  0
LINE
  5
20a
100
AcDbEntity
  8
Calque_2
 62
7
100
AcDbLine
 10
155.536059
 20
116.111831
 30
0.0
 11
170.492299
 21
116.111831
 31
0.0
  0
LINE
  5
20b
100
AcDbEntity
  8
Calque_2
 62
7
100
AcDbLine
 10
170.492299
 20
116.111831
 30
0.0
 11
170.492299
 21
106.655591
 31
0.0
  0
LINE
  5
20c
100
AcDbEntity
  8
Calque_2
 62
7
100
AcDbLine
 10
170.492299
 20
106.655591
 30
0.0
 11
155.536059
 21
106.655591
 31
0.0
  0
LINE
  5
20d
100
AcDbEntity
  8
Calque_2
 62
7
100
AcDbLine
 10
155.536059
 20
106.655591
 30
0.0
 11
155.536059
 21
116.111831
 31
0.0
  0
LINE
  5
20e
100
AcDbEntity
  8
Calque_2
 62
7
100
AcDbLine
 10
174.463972
 20
116.111470
 30
0.0
 11
189.919490
 21
116.111470
 31
0.0
  0
LINE
  5
20f
100
AcDbEntity
  8
Calque_2
 62
7
100
AcDbLine
 10
189.919490
 20
116.111470
 30
0.0
 11
189.919490
 21
106.655953
 31
0.0
  0
LINE
  5
210
100
AcDbEntity
  8
Calque_2
 62
7
100
AcDbLine
 10
189.919490
 20
106.655953
 30
0.0
 11
174.463972
 21
106.655953
 31
0.0
  0
LINE
  5
211
100
AcDbEntity
  8
Calque_2
 62
7
100
AcDbLine
 10
174.463972
 20
106.655953
 30
0.0
 11
174.463972
 21
116.111470
 31
0.0
  0
LINE
  5
212
100
AcDbEntity
  8
Calque_2
 62
7
100
AcDbLine
 10
193.391176
 20
116.111831
 30
0.0
 11
208.347417
 21
116.111831
 31
0.0
  0
LINE
  5
213
100
AcDbEntity
  8
Calque_2
 62
7
100
AcDbLine
 10
208.347417
 20
116.111831
 30
0.0
 11
208.347417
 21
106.655591
 31
0.0
  0
LINE
  5
214
100
AcDbEntity
  8
Calque_2
 62
7
100
AcDbLine
 10
208.347417
 20
106.655591
 30
0.0
 11
193.391176
 21
106.655591
 31
0.0
  0
LINE
  5
215
100
AcDbEntity
  8
Calque_2
 62
7
100
AcDbLine
 10
193.391176
 20
106.655591
 30
0.0
 11
193.391176
 21
116.111831
 31
0.0
  0
LINE
  5
216
100
AcDbEntity
  8
Calque_2
 62
7
100
AcDbLine
 10
212.319058
 20
116.111470
 30
0.0
 11
227.774575
 21
116.111470
 31
0.0
  0
LINE
  5
217
100
AcDbEntity
  8
Calque_2
 62
7
100
AcDbLine
 10
227.774575
 20
116.111470
 30
0.0
 11
227.774575
 21
106.655953
 31
0.0
  0
LINE
  5
218
100
AcDbEntity
  8
Calque_2
 62
7
100
AcDbLine
 10
227.774575
 20
106.655953
 30
0.0
 11
212.319058
 21
106.655953
 31
0.0
  0
LINE
  5
219
100
AcDbEntity
  8
Calque_2
 62
7
100
AcDbLine
 10
212.319058
 20
106.655953
 30
0.0
 11
212.319058
 21
116.111470
 31
0.0
  0
LINE
  5
21a
100
AcDbEntity
  8
Calque_2
 62
7
100
AcDbLine
 10
231.246617
 20
116.111470
 30
0.0
 11
246.702134
 21
116.111470
 31
0.0
  0
LINE
  5
21b
100
AcDbEntity
  8
Calque_2
 62
7
100
AcDbLine
 10
246.702134
 20
116.111470
 30
0.0
 11
246.702134
 21
106.655953
 31
0.0
  0
LINE
  5
21c
100
AcDbEntity
  8
Calque_2
 62
7
100
AcDbLine
 10
246.702134
 20
106.655953
 30
0.0
 11
231.246617
 21
106.655953
 31
0.0
  0
LINE
  5
21d
100
AcDbEntity
  8
Calque_2
 62
7
100
AcDbLine
 10
231.246617
 20
106.655953
 30
0.0
 11
231.246617
 21
116.111470
 31
0.0
  0
LINE
  5
21e
100
AcDbEntity
  8
Calque_2
 62
7
100
AcDbLine
 10
250.174149
 20
116.082265
 30
0.0
 11
265.629666
 21
116.082265
 31
0.0
  0
LINE
  5
21f
100
AcDbEntity
  8
Calque_2
 62
7
100
AcDbLine
 10
265.629666
 20
116.082265
 30
0.0
 11
265.629666
 21
106.626747
 31
0.0
  0
LINE
  5
220
100
AcDbEntity
  8
Calque_2
 62
7
100
AcDbLine
 10
265.629666
 20
106.626747
 30
0.0
 11
250.174149
 21
106.626747
 31
0.0
  0
LINE
  5
221
100
AcDbEntity
  8
Calque_2
 62
7
100
AcDbLine
 10
250.174149
 20
106.626747
 30
0.0
 11
250.174149
 21
116.082265
 31
0.0
  0
LINE
  5
222
100
AcDbEntity
  8
Calque_2
 62
7
100
AcDbLine
 10
269.112918
 20
116.082265
 30
0.0
 11
284.568436
 21
116.082265
 31
0.0
  0
LINE
  5
223
100
AcDbEntity
  8
Calque_2
 62
7
100
AcDbLine
 10
284.568436
 20
116.082265
 30
0.0
 11
284.568436
 21
106.626747
 31
0.0
  0
LINE
  5
224
100
AcDbEntity
  8
Calque_2
 62
7
100
AcDbLine
 10
284.568436
 20
106.626747
 30
0.0
 11
269.112918
 21
106.626747
 31
0.0
  0
LINE
  5
225
100
AcDbEntity
  8
Calque_2
 62
7
100
AcDbLine
 10
269.112918
 20
106.626747
 30
0.0
 11
269.112918
 21
116.082265
 31
0.0
  0
LINE
  5
226
100
AcDbEntity
  8
Calque_2
 62
7
100
AcDbLine
 10
236.385891
 20
13.615844
 30
0.0
 11
251.342132
 21
13.615844
 31
0.0
  0
LINE
  5
227
100
AcDbEntity
  8
Calque_2
 62
7
100
AcDbLine
 10
251.342132
 20
13.615844
 30
0.0
 11
251.342132
 21
4.159603
 31
0.0
  0
LINE
  5
228
100
AcDbEntity
  8
Calque_2
 62
7
100
AcDbLine
 10
251.342132
 20
4.159603
 30
0.0
 11
236.385891
 21
4.159603
 31
0.0
  0
LINE
  5
229
100
AcDbEntity
  8
Calque_2
 62
7
100
AcDbLine
 10
236.385891
 20
4.159603
 30
0.0
 11
236.385891
 21
13.615844
 31
0.0
  0
LINE
  5
22a
100
AcDbEntity
  8
Calque_2
 62
7
100
AcDbLine
 10
254.824439
 20
27.054624
 30
0.0
 11
269.780679
 21
27.054624
 31
0.0
  0
LINE
  5
22b
100
AcDbEntity
  8
Calque_2
 62
7
100
AcDbLine
 10
269.780679
 20
27.054624
 30
0.0
 11
269.780679
 21
17.598384
 31
0.0
  0
LINE
  5
22c
100
AcDbEntity
  8
Calque_2
 62
7
100
AcDbLine
 10
269.780679
 20
17.598384
 30
0.0
 11
254.824439
 21
17.598384
 31
0.0
  0
LINE
  5
22d
100
AcDbEntity
  8
Calque_2
 62
7
100
AcDbLine
 10
254.824439
 20
17.598384
 30
0.0
 11
254.824439
 21
27.054624
 31
0.0
  0
LINE
  5
22e
100
AcDbEntity
  8
Calque_2
 62
7
100
AcDbLine
 10
254.824439
 20
13.615844
 30
0.0
 11
269.780679
 21
13.615844
 31
0.0
  0
LINE
  5
22f
100
AcDbEntity
  8
Calque_2
 62
7
100
AcDbLine
 10
269.780679
 20
13.615844
 30
0.0
 11
269.780679
 21
4.159603
 31
0.0
  0
LINE
  5
230
100
AcDbEntity
  8
Calque_2
 62
7
100
AcDbLine
 10
269.780679
 20
4.159603
 30
0.0
 11
254.824439
 21
4.159603
 31
0.0
  0
LINE
  5
231
100
AcDbEntity
  8
Calque_2
 62
7
100
AcDbLine
 10
254.824439
 20
4.159603
 30
0.0
 11
254.824439
 21
13.615844
 31
0.0
  0
LINE
  5
232
100
AcDbEntity
  8
Calque_2
 62
7
100
AcDbLine
 10
273.763208
 20
13.615844
 30
0.0
 11
288.719449
 21
13.615844
 31
0.0
  0
LINE
  5
233
100
AcDbEntity
  8
Calque_2
 62
7
100
AcDbLine
 10
288.719449
 20
13.615844
 30
0.0
 11
288.719449
 21
4.159603
 31
0.0
  0
LINE
  5
234
100
AcDbEntity
  8
Calque_2
 62
7
100
AcDbLine
 10
288.719449
 20
4.159603
 30
0.0
 11
273.763208
 21
4.159603
 31
0.0
  0
LINE
  5
235
100
AcDbEntity
  8
Calque_2
 62
7
100
AcDbLine
 10
273.763208
 20
4.159603
 30
0.0
 11
273.763208
 21
13.615844
 31
0.0
  0
LINE
  5
236
100
AcDbEntity
  8
Calque_2
 62
7
100
AcDbLine
 10
292.706819
 20
27.011555
 30
0.0
 11
326.624053
 21
27.011555
 31
0.0
  0
LINE
  5
237
100
AcDbEntity
  8
Calque_2
 62
7
100
AcDbLine
 10
326.624053
 20
27.011555
 30
0.0
 11
326.624053
 21
12.094321
 31
0.0
  0
LINE
  5
238
100
AcDbEntity
  8
Calque_2
 62
7
100
AcDbLine
 10
326.624053
 20
12.094321
 30
0.0
 11
292.706819
 21
12.094321
 31
0.0
  0
LINE
  5
239
100
AcDbEntity
  8
Calque_2
 62
7
100
AcDbLine
 10
292.706819
 20
12.094321
 30
0.0
 11
292.706819
 21
27.011555
 31
0.0
  0
LINE
  5
23a
100
AcDbEntity
  8
Calque_2
 62
7
100
AcDbLine
 10
292.692929
 20
45.952994
 30
0.0
 11
307.637936
 21
45.952994
 31
0.0
  0
LINE
  5
23b
100
AcDbEntity
  8
Calque_2
 62
7
100
AcDbLine
 10
307.637936
 20
45.952994
 30
0.0
 11
307.637936
 21
31.007985
 31
0.0
  0
LINE
  5
23c
100
AcDbEntity
  8
Calque_2
 62
7
100
AcDbLine
 10
307.637936
 20
31.007985
 30
0.0
 11
292.692929
 21
31.007985
 31
0.0
  0
LINE
  5
23d
100
AcDbEntity
  8
Calque_2
 62
7
100
AcDbLine
 10
292.692929
 20
31.007985
 30
0.0
 11
292.692929
 21
45.952994
 31
0.0
  0
LINE
  5
23e
100
AcDbEntity
  8
Calque_2
 62
7
100
AcDbLine
 10
311.620479
 20
45.952994
 30
0.0
 11
326.565487
 21
45.952994
 31
0.0
  0
LINE
  5
23f
100
AcDbEntity
  8
Calque_2
 62
7
100
AcDbLine
 10
326.565487
 20
45.952994
 30
0.0
 11
326.565487
 21
31.007985
 31
0.0
  0
LINE
  5
240
100
AcDbEntity
  8
Calque_2
 62
7
100
AcDbLine
 10
326.565487
 20
31.007985
 30
0.0
 11
311.620479
 21
31.007985
 31
0.0
  0
LINE
  5
241
100
AcDbEntity
  8
Calque_2
 62
7
100
AcDbLine
 10
311.620479
 20
31.007985
 30
0.0
 11
311.620479
 21
45.952994
 31
0.0
  0
LINE
  5
242
100
AcDbEntity
  8
Calque_2
 62
7
100
AcDbLine
 10
330.606609
 20
27.039331
 30
0.0
 11
345.551617
 21
27.039331
 31
0.0
  0
LINE
  5
243
100
AcDbEntity
  8
Calque_2
 62
7
100
AcDbLine
 10
345.551617
 20
27.039331
 30
0.0
 11
345.551617
 21
12.094322
 31
0.0
  0
LINE
  5
244
100
AcDbEntity
  8
Calque_2
 62
7
100
AcDbLine
 10
345.551617
 20
12.094322
 30
0.0
 11
330.606609
 21
12.094322
 31
0.0
  0
LINE
  5
245
100
AcDbEntity
  8
Calque_2
 62
7
100
AcDbLine
 10
330.606609
 20
12.094322
 30
0.0
 11
330.606609
 21
27.039331
 31
0.0
  0
LINE
  5
246
100
AcDbEntity
  8
Calque_2
 62
7
100
AcDbLine
 10
330.606609
 20
45.966882
 30
0.0
 11
345.551617
 21
45.966882
 31
0.0
  0
LINE
  5
247
100
AcDbEntity
  8
Calque_2
 62
7
100
AcDbLine
 10
345.551617
 20
45.966882
 30
0.0
 11
345.551617
 21
31.021873
 31
0.0
  0
LINE
  5
248
100
AcDbEntity
  8
Calque_2
 62
7
100
AcDbLine
 10
345.551617
 20
31.021873
 30
0.0
 11
330.606609
 21
31.021873
 31
0.0
  0
LINE
  5
249
100
AcDbEntity
  8
Calque_2
 62
7
100
AcDbLine
 10
330.606609
 20
31.021873
 30
0.0
 11
330.606609
 21
45.966882
 31
0.0
  0
LINE
  5
24a
100
AcDbEntity
  8
Calque_2
 62
7
100
AcDbLine
 10
292.692929
 20
64.880545
 30
0.0
 11
307.637936
 21
64.880545
 31
0.0
  0
LINE
  5
24b
100
AcDbEntity
  8
Calque_2
 62
7
100
AcDbLine
 10
307.637936
 20
64.880545
 30
0.0
 11
307.637936
 21
49.935536
 31
0.0
  0
LINE
  5
24c
100
AcDbEntity
  8
Calque_2
 62
7
100
AcDbLine
 10
307.637936
 20
49.935536
 30
0.0
 11
292.692929
 21
49.935536
 31
0.0
  0
LINE
  5
24d
100
AcDbEntity
  8
Calque_2
 62
7
100
AcDbLine
 10
292.692929
 20
49.935536
 30
0.0
 11
292.692929
 21
64.880545
 31
0.0
  0
LINE
  5
24e
100
AcDbEntity
  8
Calque_2
 62
7
100
AcDbLine
 10
311.620479
 20
64.880545
 30
0.0
 11
326.565487
 21
64.880545
 31
0.0
  0
LINE
  5
24f
100
AcDbEntity
  8
Calque_2
 62
7
100
AcDbLine
 10
326.565487
 20
64.880545
 30
0.0
 11
326.565487
 21
49.935536
 31
0.0
  0
LINE
  5
250
100
AcDbEntity
  8
Calque_2
 62
7
100
AcDbLine
 10
326.565487
 20
49.935536
 30
0.0
 11
311.620479
 21
49.935536
 31
0.0
  0
LINE
  5
251
100
AcDbEntity
  8
Calque_2
 62
7
100
AcDbLine
 10
311.620479
 20
49.935536
 30
0.0
 11
311.620479
 21
64.880545
 31
0.0
  0
LINE
  5
252
100
AcDbEntity
  8
Calque_2
 62
7
100
AcDbLine
 10
330.606609
 20
64.894432
 30
0.0
 11
345.551617
 21
64.894432
 31
0.0
  0
LINE
  5
253
100
AcDbEntity
  8
Calque_2
 62
7
100
AcDbLine
 10
345.551617
 20
64.894432
 30
0.0
 11
345.551617
 21
49.949424
 31
0.0
  0
LINE
  5
254
100
AcDbEntity
  8
Calque_2
 62
7
100
AcDbLine
 10
345.551617
 20
49.949424
 30
0.0
 11
330.606609
 21
49.949424
 31
0.0
  0
LINE
  5
255
100
AcDbEntity
  8
Calque_2
 62
7
100
AcDbLine
 10
330.606609
 20
49.949424
 30
0.0
 11
330.606609
 21
64.894432
 31
0.0
  0
LINE
  5
256
100
AcDbEntity
  8
Calque_2
 62
7
100
AcDbLine
 10
292.692929
 20
83.808095
 30
0.0
 11
307.637936
 21
83.808095
 31
0.0
  0
LINE
  5
257
100
AcDbEntity
  8
Calque_2
 62
7
100
AcDbLine
 10
307.637936
 20
83.808095
 30
0.0
 11
307.637936
 21
68.863086
 31
0.0
  0
LINE
  5
258
100
AcDbEntity
  8
Calque_2
 62
7
100
AcDbLine
 10
307.637936
 20
68.863086
 30
0.0
 11
292.692929
 21
68.863086
 31
0.0
  0
LINE
  5
259
100
AcDbEntity
  8
Calque_2
 62
7
100
AcDbLine
 10
292.692929
 20
68.863086
 30
0.0
 11
292.692929
 21
83.808095
 31
0.0
  0
LINE
  5
25a
100
AcDbEntity
  8
Calque_2
 62
7
100
AcDbLine
 10
311.620479
 20
83.808095
 30
0.0
 11
326.565487
 21
83.808095
 31
0.0
  0
LINE
  5
25b
100
AcDbEntity
  8
Calque_2
 62
7
100
AcDbLine
 10
326.565487
 20
83.808095
 30
0.0
 11
326.565487
 21
68.863086
 31
0.0
  0
LINE
  5
25c
100
AcDbEntity
  8
Calque_2
 62
7
100
AcDbLine
 10
326.565487
 20
68.863086
 30
0.0
 11
311.620479
 21
68.863086
 31
0.0
  0
LINE
  5
25d
100
AcDbEntity
  8
Calque_2
 62
7
100
AcDbLine
 10
311.620479
 20
68.863086
 30
0.0
 11
311.620479
 21
83.808095
 31
0.0
  0
LINE
  5
25e
100
AcDbEntity
  8
Calque_2
 62
7
100
AcDbLine
 10
330.606609
 20
83.821983
 30
0.0
 11
345.551617
 21
83.821983
 31
0.0
  0
LINE
  5
25f
100
AcDbEntity
  8
Calque_2
 62
7
100
AcDbLine
 10
345.551617
 20
83.821983
 30
0.0
 11
345.551617
 21
68.876974
 31
0.0
  0
LINE
  5
260
100
AcDbEntity
  8
Calque_2
 62
7
100
AcDbLine
 10
345.551617
 20
68.876974
 30
0.0
 11
330.606609
 21
68.876974
 31
0.0
  0
LINE
  5
261
100
AcDbEntity
  8
Calque_2
 62
7
100
AcDbLine
 10
330.606609
 20
68.876974
 30
0.0
 11
330.606609
 21
83.821983
 31
0.0
  0
LINE
  5
262
100
AcDbEntity
  8
Calque_2
 62
7
100
AcDbLine
 10
292.692929
 20
102.735646
 30
0.0
 11
307.637936
 21
102.735646
 31
0.0
  0
LINE
  5
263
100
AcDbEntity
  8
Calque_2
 62
7
100
AcDbLine
 10
307.637936
 20
102.735646
 30
0.0
 11
307.637936
 21
87.790637
 31
0.0
  0
LINE
  5
264
100
AcDbEntity
  8
Calque_2
 62
7
100
AcDbLine
 10
307.637936
 20
87.790637
 30
0.0
 11
292.692929
 21
87.790637
 31
0.0
  0
LINE
  5
265
100
AcDbEntity
  8
Calque_2
 62
7
100
AcDbLine
 10
292.692929
 20
87.790637
 30
0.0
 11
292.692929
 21
102.735646
 31
0.0
  0
LINE
  5
266
100
AcDbEntity
  8
Calque_2
 62
7
100
AcDbLine
 10
311.620479
 20
102.735646
 30
0.0
 11
326.565487
 21
102.735646
 31
0.0
  0
LINE
  5
267
100
AcDbEntity
  8
Calque_2
 62
7
100
AcDbLine
 10
326.565487
 20
102.735646
 30
0.0
 11
326.565487
 21
87.790637
 31
0.0
  0
LINE
  5
268
100
AcDbEntity
  8
Calque_2
 62
7
100
AcDbLine
 10
326.565487
 20
87.790637
 30
0.0
 11
311.620479
 21
87.790637
 31
0.0
  0
LINE
  5
269
100
AcDbEntity
  8
Calque_2
 62
7
100
AcDbLine
 10
311.620479
 20
87.790637
 30
0.0
 11
311.620479
 21
102.735646
 31
0.0
  0
LINE
  5
26a
100
AcDbEntity
  8
Calque_2
 62
7
100
AcDbLine
 10
330.606609
 20
102.749534
 30
0.0
 11
345.551617
 21
102.749534
 31
0.0
  0
LINE
  5
26b
100
AcDbEntity
  8
Calque_2
 62
7
100
AcDbLine
 10
345.551617
 20
102.749534
 30
0.0
 11
345.551617
 21
87.804525
 31
0.0
  0
LINE
  5
26c
100
AcDbEntity
  8
Calque_2
 62
7
100
AcDbLine
 10
345.551617
 20
87.804525
 30
0.0
 11
330.606609
 21
87.804525
 31
0.0
  0
LINE
  5
26d
100
AcDbEntity
  8
Calque_2
 62
7
100
AcDbLine
 10
330.606609
 20
87.804525
 30
0.0
 11
330.606609
 21
102.749534
 31
0.0
  0
LINE
  5
26e
100
AcDbEntity
  8
Calque_2
 62
7
100
AcDbLine
 10
349.534160
 20
45.966882
 30
0.0
 11
364.479168
 21
45.966882
 31
0.0
  0
LINE
  5
26f
100
AcDbEntity
  8
Calque_2
 62
7
100
AcDbLine
 10
364.479168
 20
45.966882
 30
0.0
 11
364.479168
 21
12.094320
 31
0.0
  0
LINE
  5
270
100
AcDbEntity
  8
Calque_2
 62
7
100
AcDbLine
 10
364.479168
 20
12.094320
 30
0.0
 11
349.534160
 21
12.094320
 31
0.0
  0
LINE
  5
271
100
AcDbEntity
  8
Calque_2
 62
7
100
AcDbLine
 10
349.534160
 20
12.094320
 30
0.0
 11
349.534160
 21
45.966882
 31
0.0
  0
LINE
  5
272
100
AcDbEntity
  8
Calque_2
 62
7
100
AcDbLine
 10
349.534160
 20
83.821989
 30
0.0
 11
364.479168
 21
83.821989
 31
0.0
  0
LINE
  5
273
100
AcDbEntity
  8
Calque_2
 62
7
100
AcDbLine
 10
364.479168
 20
83.821989
 30
0.0
 11
364.479168
 21
49.949427
 31
0.0
  0
LINE
  5
274
100
AcDbEntity
  8
Calque_2
 62
7
100
AcDbLine
 10
364.479168
 20
49.949427
 30
0.0
 11
349.534160
 21
49.949427
 31
0.0
  0
LINE
  5
275
100
AcDbEntity
  8
Calque_2
 62
7
100
AcDbLine
 10
349.534160
 20
49.949427
 30
0.0
 11
349.534160
 21
83.821989
 31
0.0
  0
LINE
  5
276
100
AcDbEntity
  8
Calque_2
 62
7
100
AcDbLine
 10
349.534160
 20
102.749534
 30
0.0
 11
364.479168
 21
102.749534
 31
0.0
  0
LINE
  5
277
100
AcDbEntity
  8
Calque_2
 62
7
100
AcDbLine
 10
364.479168
 20
102.749534
 30
0.0
 11
364.479168
 21
87.804525
 31
0.0
  0
LINE
  5
278
100
AcDbEntity
  8
Calque_2
 62
7
100
AcDbLine
 10
364.479168
 20
87.804525
 30
0.0
 11
349.534160
 21
87.804525
 31
0.0
  0
LINE
  5
279
100
AcDbEntity
  8
Calque_2
 62
7
100
AcDbLine
 10
349.534160
 20
87.804525
 30
0.0
 11
349.534160
 21
102.749534
 31
0.0
  0
LINE
  5
27a
100
AcDbEntity
  8
Calque_2
 62
7
100
AcDbLine
 10
292.681737
 20
116.174432
 30
0.0
 11
307.637977
 21
116.174432
 31
0.0
  0
LINE
  5
27b
100
AcDbEntity
  8
Calque_2
 62
7
100
AcDbLine
 10
307.637977
 20
116.174432
 30
0.0
 11
307.637977
 21
106.718192
 31
0.0
  0
LINE
  5
27c
100
AcDbEntity
  8
Calque_2
 62
7
100
AcDbLine
 10
307.637977
 20
106.718192
 30
0.0
 11
292.681737
 21
106.718192
 31
0.0
  0
LINE
  5
27d
100
AcDbEntity
  8
Calque_2
 62
7
100
AcDbLine
 10
292.681737
 20
106.718192
 30
0.0
 11
292.681737
 21
116.174432
 31
0.0
  0
LINE
  5
27e
100
AcDbEntity
  8
Calque_2
 62
7
100
AcDbLine
 10
311.620479
 20
116.174432
 30
0.0
 11
326.576720
 21
116.174432
 31
0.0
  0
LINE
  5
27f
100
AcDbEntity
  8
Calque_2
 62
7
100
AcDbLine
 10
326.576720
 20
116.174432
 30
0.0
 11
326.576720
 21
106.718192
 31
0.0
  0
LINE
  5
280
100
AcDbEntity
  8
Calque_2
 62
7
100
AcDbLine
 10
326.576720
 20
106.718192
 30
0.0
 11
311.620479
 21
106.718192
 31
0.0
  0
LINE
  5
281
100
AcDbEntity
  8
Calque_2
 62
7
100
AcDbLine
 10
311.620479
 20
106.718192
 30
0.0
 11
311.620479
 21
116.174432
 31
0.0
  0
LINE
  5
282
100
AcDbEntity
  8
Calque_2
 62
7
100
AcDbLine
 10
330.606609
 20
116.188320
 30
0.0
 11
345.562849
 21
116.188320
 31
0.0
  0
LINE
  5
283
100
AcDbEntity
  8
Calque_2
 62
7
100
AcDbLine
 10
345.562849
 20
116.188320
 30
0.0
 11
345.562849
 21
106.732080
 31
0.0
  0
LINE
  5
284
100
AcDbEntity
  8
Calque_2
 62
7
100
AcDbLine
 10
345.562849
 20
106.732080
 30
0.0
 11
330.606609
 21
106.732080
 31
0.0
  0
LINE
  5
285
100
AcDbEntity
  8
Calque_2
 62
7
100
AcDbLine
 10
330.606609
 20
106.732080
 30
0.0
 11
330.606609
 21
116.188320
 31
0.0
  0
LINE
  5
286
100
AcDbEntity
  8
Calque_2
 62
7
100
AcDbLine
 10
349.534160
 20
116.188320
 30
0.0
 11
364.490400
 21
116.188320
 31
0.0
  0
LINE
  5
287
100
AcDbEntity
  8
Calque_2
 62
7
100
AcDbLine
 10
364.490400
 20
116.188320
 30
0.0
 11
364.490400
 21
106.732080
 31
0.0
  0
LINE
  5
288
100
AcDbEntity
  8
Calque_2
 62
7
100
AcDbLine
 10
364.490400
 20
106.732080
 30
0.0
 11
349.534160
 21
106.732080
 31
0.0
  0
LINE
  5
289
100
AcDbEntity
  8
Calque_2
 62
7
100
AcDbLine
 10
349.534160
 20
106.732080
 30
0.0
 11
349.534160
 21
116.188320
 31
0.0
  0
LINE
  5
28a
100
AcDbEntity
  8
Calque_2
 62
7
100
AcDbLine
 10
311.128593
 20
139.604913
 30
0.0
 11
327.083399
 21
139.604913
 31
0.0
  0
LINE
  5
28b
100
AcDbEntity
  8
Calque_2
 62
7
100
AcDbLine
 10
327.083399
 20
139.604913
 30
0.0
 11
327.083399
 21
130.150107
 31
0.0
  0
LINE
  5
28c
100
AcDbEntity
  8
Calque_2
 62
7
100
AcDbLine
 10
327.083399
 20
130.150107
 30
0.0
 11
311.128593
 21
130.150107
 31
0.0
  0
LINE
  5
28d
100
AcDbEntity
  8
Calque_2
 62
7
100
AcDbLine
 10
311.128593
 20
130.150107
 30
0.0
 11
311.128593
 21
139.604913
 31
0.0
  0
LINE
  5
28e
100
AcDbEntity
  8
Calque_2
 62
7
100
AcDbLine
 10
269.596894
 20
139.506237
 30
0.0
 11
284.553134
 21
139.506237
 31
0.0
  0
LINE
  5
28f
100
AcDbEntity
  8
Calque_2
 62
7
100
AcDbLine
 10
284.553134
 20
139.506237
 30
0.0
 11
284.553134
 21
130.049997
 31
0.0
  0
LINE
  5
290
100
AcDbEntity
  8
Calque_2
 62
7
100
AcDbLine
 10
284.553134
 20
130.049997
 30
0.0
 11
269.596894
 21
130.049997
 31
0.0
  0
LINE
  5
291
100
AcDbEntity
  8
Calque_2
 62
7
100
AcDbLine
 10
269.596894
 20
130.049997
 30
0.0
 11
269.596894
 21
139.506237
 31
0.0
  0
LINE
  5
292
100
AcDbEntity
  8
Calque_2
 62
7
100
AcDbLine
 10
250.669872
 20
139.535442
 30
0.0
 11
265.626113
 21
139.535442
 31
0.0
  0
LINE
  5
293
100
AcDbEntity
  8
Calque_2
 62
7
100
AcDbLine
 10
265.626113
 20
139.535442
 30
0.0
 11
265.626113
 21
130.079202
 31
0.0
  0
LINE
  5
294
100
AcDbEntity
  8
Calque_2
 62
7
100
AcDbLine
 10
265.626113
 20
130.079202
 30
0.0
 11
250.669872
 21
130.079202
 31
0.0
  0
LINE
  5
295
100
AcDbEntity
  8
Calque_2
 62
7
100
AcDbLine
 10
250.669872
 20
130.079202
 30
0.0
 11
250.669872
 21
139.535442
 31
0.0
  0
LINE
  5
296
100
AcDbEntity
  8
Calque_2
 62
7
100
AcDbLine
 10
231.745877
 20
139.535442
 30
0.0
 11
246.702118
 21
139.535442
 31
0.0
  0
LINE
  5
297
100
AcDbEntity
  8
Calque_2
 62
7
100
AcDbLine
 10
246.702118
 20
139.535442
 30
0.0
 11
246.702118
 21
130.079202
 31
0.0
  0
LINE
  5
298
100
AcDbEntity
  8
Calque_2
 62
7
100
AcDbLine
 10
246.702118
 20
130.079202
 30
0.0
 11
231.745877
 21
130.079202
 31
0.0
  0
LINE
  5
299
100
AcDbEntity
  8
Calque_2
 62
7
100
AcDbLine
 10
231.745877
 20
130.079202
 30
0.0
 11
231.745877
 21
139.535442
 31
0.0
  0
LINE
  5
29a
100
AcDbEntity
  8
Calque_2
 62
7
100
AcDbLine
 10
8.097128
 20
139.535443
 30
0.0
 11
23.053369
 21
139.535443
 31
0.0
  0
LINE
  5
29b
100
AcDbEntity
  8
Calque_2
 62
7
100
AcDbLine
 10
23.053369
 20
139.535443
 30
0.0
 11
23.053369
 21
130.079203
 31
0.0
  0
LINE
  5
29c
100
AcDbEntity
  8
Calque_2
 62
7
100
AcDbLine
 10
23.053369
 20
130.079203
 30
0.0
 11
8.097128
 21
130.079203
 31
0.0
  0
LINE
  5
29d
100
AcDbEntity
  8
Calque_2
 62
7
100
AcDbLine
 10
8.097128
 20
130.079203
 30
0.0
 11
8.097128
 21
139.535443
 31
0.0
  0
LINE
  5
29e
100
AcDbEntity
  8
Calque_2
 62
7
100
AcDbLine
 10
27.035916
 20
139.535443
 30
0.0
 11
41.992157
 21
139.535443
 31
0.0
  0
LINE
  5
29f
100
AcDbEntity
  8
Calque_2
 62
7
100
AcDbLine
 10
41.992157
 20
139.535443
 30
0.0
 11
41.992157
 21
130.079203
 31
0.0
  0
LINE
  5
2a0
100
AcDbEntity
  8
Calque_2
 62
7
100
AcDbLine
 10
41.992157
 20
130.079203
 30
0.0
 11
27.035916
 21
130.079203
 31
0.0
  0
LINE
  5
2a1
100
AcDbEntity
  8
Calque_2
 62
7
100
AcDbLine
 10
27.035916
 20
130.079203
 30
0.0
 11
27.035916
 21
139.535443
 31
0.0
  0
LINE
  5
2a2
100
AcDbEntity
  8
Calque_2
 62
7
100
AcDbLine
 10
45.974699
 20
139.535443
 30
0.0
 11
60.930939
 21
139.535443
 31
0.0
  0
LINE
  5
2a3
100
AcDbEntity
  8
Calque_2
 62
7
100
AcDbLine
 10
60.930939
 20
139.535443
 30
0.0
 11
60.930939
 21
130.079203
 31
0.0
  0
LINE
  5
2a4
100
AcDbEntity
  8
Calque_2
 62
7
100
AcDbLine
 10
60.930939
 20
130.079203
 30
0.0
 11
45.974699
 21
130.079203
 31
0.0
  0
LINE
  5
2a5
100
AcDbEntity
  8
Calque_2
 62
7
100
AcDbLine
 10
45.974699
 20
130.079203
 30
0.0
 11
45.974699
 21
139.535443
 31
0.0
  0
LINE
  5
2a6
100
AcDbEntity
  8
Calque_2
 62
7
100
AcDbLine
 10
0.133144
 20
143.442883
 30
0.0
 11
368.558257
 21
143.568711
 31
0.0
  0
LINE
  5
2a7
100
AcDbEntity
  8
Calque_2
 62
7
100
AcDbLine
 10
368.558257
 20
143.568711
 30
0.0
 11
368.188846
 21
0.198537
 31
0.0
  0
LINE
  5
2a8
100
AcDbEntity
  8
Calque_2
 62
7
100
AcDbLine
 10
368.188846
 20
0.198537
 30
0.0
 11
0.132292
 21
0.132317
 31
0.0
  0
LINE
  5
2a9
100
AcDbEntity
  8
Calque_2
 62
7
100
AcDbLine
 10
0.132292
 20
0.132317
 30
0.0
 11
0.133085
 21
143.442883
 31
0.0
  0
LINE
  5
2aa
100
AcDbEntity
  8
Calque_2
 62
7
100
AcDbLine
 10
3.621516
 20
83.743130
 30
0.0
 11
28.856479
 21
83.743130
 31
0.0
  0
LINE
  5
2ab
100
AcDbEntity
  8
Calque_2
 62
7
100
AcDbLine
 10
28.856479
 20
83.743130
 30
0.0
 11
28.856479
 21
68.828167
 31
0.0
  0
LINE
  5
2ac
100
AcDbEntity
  8
Calque_2
 62
7
100
AcDbLine
 10
28.856479
 20
68.828167
 30
0.0
 11
3.621516
 21
68.828167
 31
0.0
  0
LINE
  5
2ad
100
AcDbEntity
  8
Calque_2
 62
7
100
AcDbLine
 10
3.621516
 20
68.828167
 30
0.0
 11
3.621516
 21
83.743130
 31
0.0
  0
SPLINE
  5
2ae
100
AcDbEntity
  8
Calque_2
 62
7
100
AcDbSpline
 70
8
 71
3
 72
8
 73
4
 74
0
 40
0
 40
0
 40
0
 40
0
 40
1
 40
1
 40
1
 40
1
 10
179.103279
 20
27.024449
 30
0.0
 10
179.103263
 20
27.024449
 30
0.0
 10
179.102763
 20
26.312733
 30
0.0
 10
179.102763
 20
25.428681
 30
0.0
  0
LINE
  5
2af
100
AcDbEntity
  8
Calque_2
 62
7
100
AcDbLine
 10
179.102763
 20
25.428681
 30
0.0
 11
179.102763
 21
13.676426
 31
0.0
  0
SPLINE
  5
2b0
100
AcDbEntity
  8
Calque_2
 62
7
100
AcDbSpline
 70
8
 71
3
 72
8
 73
4
 74
0
 40
0
 40
0
 40
0
 40
0
 40
1
 40
1
 40
1
 40
1
 10
179.102763
 20
13.676426
 30
0.0
 10
179.102763
 20
12.792374
 30
0.0
 10
179.103263
 20
12.080658
 30
0.0
 10
179.103279
 20
12.080658
 30
0.0
  0
LINE
  5
2b1
100
AcDbEntity
  8
Calque_2
 62
7
100
AcDbLine
 10
179.103279
 20
12.080658
 30
0.0
 11
194.547300
 21
12.080658
 31
0.0
  0
SPLINE
  5
2b2
100
AcDbEntity
  8
Calque_2
 62
7
100
AcDbSpline
 70
8
 71
3
 72
8
 73
4
 74
0
 40
0
 40
0
 40
0
 40
0
 40
1
 40
1
 40
1
 40
1
 10
194.547300
 20
12.080658
 30
0.0
 10
194.547315
 20
12.080658
 30
0.0
 10
194.547300
 20
12.792374
 30
0.0
 10
194.547300
 20
13.676426
 30
0.0
  0
LINE
  5
2b3
100
AcDbEntity
  8
Calque_2
 62
7
100
AcDbLine
 10
194.547300
 20
13.676426
 30
0.0
 11
194.547300
 21
25.428681
 31
0.0
  0
SPLINE
  5
2b4
100
AcDbEntity
  8
Calque_2
 62
7
100
AcDbSpline
 70
8
 71
3
 72
8
 73
4
 74
0
 40
0
 40
0
 40
0
 40
0
 40
1
 40
1
 40
1
 40
1
 10
194.547300
 20
25.428681
 30
0.0
 10
194.547300
 20
26.312733
 30
0.0
 10
194.547315
 20
27.024449
 30
0.0
 10
194.547300
 20
27.024449
 30
0.0
  0
LINE
  5
2b5
100
AcDbEntity
  8
Calque_2
 62
7
100
AcDbLine
 10
194.547300
 20
27.024449
 30
0.0
 11
179.103279
 21
27.024449
 31
0.0
  0
LINE
  5
2b6
100
AcDbEntity
  8
Calque_2
 62
7
100
AcDbLine
 10
179.103279
 20
27.024449
 30
0.0
 11
179.103279
 21
27.024449
 31
0.0
  0
LINE
  5
2b7
100
AcDbEntity
  8
Calque_2
 62
7
100
AcDbLine
 10
198.031396
 20
27.025419
 30
0.0
 11
213.475496
 21
27.025419
 31
0.0
  0
LINE
  5
2b8
100
AcDbEntity
  8
Calque_2
 62
7
100
AcDbLine
 10
213.475496
 20
27.025419
 30
0.0
 11
213.475496
 21
12.081320
 31
0.0
  0
LINE
  5
2b9
100
AcDbEntity
  8
Calque_2
 62
7
100
AcDbLine
 10
213.475496
 20
12.081320
 30
0.0
 11
198.031396
 21
12.081320
 31
0.0
  0
LINE
  5
2ba
100
AcDbEntity
  8
Calque_2
 62
7
100
AcDbLine
 10
198.031396
 20
12.081320
 30
0.0
 11
198.031396
 21
27.025419
 31
0.0
  0
ENDSEC
  0
SECTION
  2
OBJECTS
  0
DICTIONARY
  5
C
330
0
100
AcDbDictionary
  3
ACAD_GROUP
350
D
  3
ACAD_MLINESTYLE
350
17
  0
DICTIONARY
  5
D
330
C
100
AcDbDictionary
  0
DICTIONARY
  5
1A
330
C
100
AcDbDictionary
  0
DICTIONARY
  5
17
330
C
100
AcDbDictionary
  3
STANDARD
350
18
  0
DICTIONARY
  5
19
330
C
100
AcDbDictionary
  0
ENDSEC
  0
EOF
