solid OpenSCAD_Model
  facet normal 0 0 -1
    outer loop
      vertex -22.9977 -54.9191 -1
      vertex -26.8614 -53.8838 -1
      vertex -23.8943 -50.5377 -1
    endloop
  endfacet
  facet normal 0 0 -1
    outer loop
      vertex -15.5 12 -1
      vertex -23.8943 50.5377 -1
      vertex -16.1669 52.6083 -1
    endloop
  endfacet
  facet normal -0 -0 -1
    outer loop
      vertex -23.8943 50.5377 -1
      vertex -15.6387 12 -1
      vertex -26.8614 53.8838 -1
    endloop
  endfacet
  facet normal 0 0 -1
    outer loop
      vertex -15.5 12 -1
      vertex -1 0 -1
      vertex -15.5 -12 -1
    endloop
  endfacet
  facet normal 0 0 -1
    outer loop
      vertex -16.1669 -52.6083 -1
      vertex -15.5 -12 -1
      vertex -12.3032 -53.6436 -1
    endloop
  endfacet
  facet normal 0 0 -1
    outer loop
      vertex -23.8943 -50.5377 -1
      vertex -15.5 -12 -1
      vertex -16.1669 -52.6083 -1
    endloop
  endfacet
  facet normal 0 0 -1
    outer loop
      vertex -11.4066 -58.0249 -1
      vertex -16.1669 -52.6083 -1
      vertex -12.3032 -53.6436 -1
    endloop
  endfacet
  facet normal 0 -0 -1
    outer loop
      vertex -16.1669 -52.6083 -1
      vertex -11.4066 -58.0249 -1
      vertex -19.134 -55.9543 -1
    endloop
  endfacet
  facet normal 0 0 -1
    outer loop
      vertex 49 -12 -1
      vertex 45 -10 -1
      vertex 49 -8 -1
    endloop
  endfacet
  facet normal 0 0 -1
    outer loop
      vertex 9.20792 -12 -1
      vertex 45 -2 -1
      vertex 45 -10 -1
    endloop
  endfacet
  facet normal -0 0 -1
    outer loop
      vertex 45 -2 -1
      vertex 9.20792 -12 -1
      vertex 45 2 -1
    endloop
  endfacet
  facet normal 0 0 -1
    outer loop
      vertex 9.20792 12 -1
      vertex 45 2 -1
      vertex 9.20792 -12 -1
    endloop
  endfacet
  facet normal 0 0 -1
    outer loop
      vertex 9.20792 -12 -1
      vertex 45 -10 -1
      vertex 49 -12 -1
    endloop
  endfacet
  facet normal 0 0 -1
    outer loop
      vertex 45 -2 -1
      vertex 49 4 -1
      vertex 49 -4 -1
    endloop
  endfacet
  facet normal 0 0 -1
    outer loop
      vertex 49 4 -1
      vertex 45 -2 -1
      vertex 45 2 -1
    endloop
  endfacet
  facet normal 0 0 -1
    outer loop
      vertex 45 10 -1
      vertex 49 12 -1
      vertex 49 8 -1
    endloop
  endfacet
  facet normal 0 0 -1
    outer loop
      vertex 45 10 -1
      vertex 9.20792 12 -1
      vertex 49 12 -1
    endloop
  endfacet
  facet normal 0 0 -1
    outer loop
      vertex 45 2 -1
      vertex 9.20792 12 -1
      vertex 45 10 -1
    endloop
  endfacet
  facet normal 0 0 -1
    outer loop
      vertex 9.20792 -12 -1
      vertex 1 0 -1
      vertex 9.20792 12 -1
    endloop
  endfacet
  facet normal 0 0 -1
    outer loop
      vertex 9.20792 -12 -1
      vertex 0.987688 -0.156434 -1
      vertex 1 0 -1
    endloop
  endfacet
  facet normal 0 0 -1
    outer loop
      vertex 9.20792 -12 -1
      vertex 0.951056 -0.309016 -1
      vertex 0.987688 -0.156434 -1
    endloop
  endfacet
  facet normal 0 0 -1
    outer loop
      vertex 9.20792 -12 -1
      vertex 0.891006 -0.45399 -1
      vertex 0.951056 -0.309016 -1
    endloop
  endfacet
  facet normal 0 0 -1
    outer loop
      vertex 9.20792 -12 -1
      vertex 0.809016 -0.587785 -1
      vertex 0.891006 -0.45399 -1
    endloop
  endfacet
  facet normal 0 0 -1
    outer loop
      vertex 9.20792 -12 -1
      vertex 0.707107 -0.707107 -1
      vertex 0.809016 -0.587785 -1
    endloop
  endfacet
  facet normal 0 0 -1
    outer loop
      vertex 9.20792 -12 -1
      vertex 0.587785 -0.809016 -1
      vertex 0.707107 -0.707107 -1
    endloop
  endfacet
  facet normal 0 0 -1
    outer loop
      vertex 9.20792 -12 -1
      vertex 0.45399 -0.891006 -1
      vertex 0.587785 -0.809016 -1
    endloop
  endfacet
  facet normal 0 0 -1
    outer loop
      vertex 9.20792 -12 -1
      vertex 0.309016 -0.951056 -1
      vertex 0.45399 -0.891006 -1
    endloop
  endfacet
  facet normal 0 0 -1
    outer loop
      vertex 9.20792 -12 -1
      vertex 0.156434 -0.987688 -1
      vertex 0.309016 -0.951056 -1
    endloop
  endfacet
  facet normal 0 0 -1
    outer loop
      vertex 9.20792 -12 -1
      vertex 0 -1 -1
      vertex 0.156434 -0.987688 -1
    endloop
  endfacet
  facet normal 0 0 -1
    outer loop
      vertex 9.20792 -12 -1
      vertex -0.156434 -0.987688 -1
      vertex 0 -1 -1
    endloop
  endfacet
  facet normal 0 0 -1
    outer loop
      vertex 9.20792 -12 -1
      vertex -0.309016 -0.951056 -1
      vertex -0.156434 -0.987688 -1
    endloop
  endfacet
  facet normal 0 0 -1
    outer loop
      vertex -15.5 -12 -1
      vertex -0.309016 -0.951056 -1
      vertex 9.20792 -12 -1
    endloop
  endfacet
  facet normal -0 0 -1
    outer loop
      vertex -0.309016 -0.951056 -1
      vertex -15.5 -12 -1
      vertex -0.45399 -0.891006 -1
    endloop
  endfacet
  facet normal 0 0 -1
    outer loop
      vertex -15.5 -12 -1
      vertex 9.20792 -12 -1
      vertex -12.3032 -53.6436 -1
    endloop
  endfacet
  facet normal -0 0 -1
    outer loop
      vertex -0.809016 -0.587785 -1
      vertex -15.5 -12 -1
      vertex -0.891006 -0.45399 -1
    endloop
  endfacet
  facet normal -0 0 -1
    outer loop
      vertex -0.707107 -0.707107 -1
      vertex -15.5 -12 -1
      vertex -0.809016 -0.587785 -1
    endloop
  endfacet
  facet normal -0 0 -1
    outer loop
      vertex -0.587785 -0.809016 -1
      vertex -15.5 -12 -1
      vertex -0.707107 -0.707107 -1
    endloop
  endfacet
  facet normal -0 0 -1
    outer loop
      vertex -0.45399 -0.891006 -1
      vertex -15.5 -12 -1
      vertex -0.587785 -0.809016 -1
    endloop
  endfacet
  facet normal 0 0 -1
    outer loop
      vertex -12.3032 -53.6436 -1
      vertex 9.20792 -12 -1
      vertex -4.57579 -55.7141 -1
    endloop
  endfacet
  facet normal 0 0 -1
    outer loop
      vertex -4.57579 -55.7141 -1
      vertex 9.20792 -12 -1
      vertex -3.67921 -60.0955 -1
    endloop
  endfacet
  facet normal -0 0 -1
    outer loop
      vertex -0.987688 -0.156434 -1
      vertex -15.5 -12 -1
      vertex -1 0 -1
    endloop
  endfacet
  facet normal 0 0 -1
    outer loop
      vertex -1 0 -1
      vertex -12.3032 53.6436 -1
      vertex -4.57579 55.7141 -1
    endloop
  endfacet
  facet normal 0 0 -1
    outer loop
      vertex 9.20792 12 -1
      vertex -4.57579 55.7141 -1
      vertex -3.67921 60.0955 -1
    endloop
  endfacet
  facet normal 0 0 -1
    outer loop
      vertex -3.67921 60.0955 -1
      vertex -4.57579 55.7141 -1
      vertex -7.54292 59.0602 -1
    endloop
  endfacet
  facet normal 0 0 -1
    outer loop
      vertex -1 0 -1
      vertex -15.5 12 -1
      vertex -12.3032 53.6436 -1
    endloop
  endfacet
  facet normal 0 0 -1
    outer loop
      vertex -23.8943 50.5377 -1
      vertex -15.5 12 -1
      vertex -15.6387 12 -1
    endloop
  endfacet
  facet normal 0 0 -1
    outer loop
      vertex -15.5 12 -1
      vertex -16.1669 52.6083 -1
      vertex -12.3032 53.6436 -1
    endloop
  endfacet
  facet normal 0 0 -1
    outer loop
      vertex -16.1669 52.6083 -1
      vertex -11.4066 58.0249 -1
      vertex -12.3032 53.6436 -1
    endloop
  endfacet
  facet normal 0 0 -1
    outer loop
      vertex -11.4066 58.0249 -1
      vertex -16.1669 52.6083 -1
      vertex -19.134 55.9543 -1
    endloop
  endfacet
  facet normal -0 0 -1
    outer loop
      vertex -15.5 -12 -1
      vertex -23.8943 -50.5377 -1
      vertex -15.6387 -12 -1
    endloop
  endfacet
  facet normal 0 0 -1
    outer loop
      vertex -15.6387 -12 -1
      vertex -23.8943 -50.5377 -1
      vertex -26.8614 -53.8838 -1
    endloop
  endfacet
  facet normal 0 0 -1
    outer loop
      vertex -22.9977 54.9191 -1
      vertex -23.8943 50.5377 -1
      vertex -26.8614 53.8838 -1
    endloop
  endfacet
  facet normal 0 0 -1
    outer loop
      vertex 0.987688 0.156434 -1
      vertex 9.20792 12 -1
      vertex 1 0 -1
    endloop
  endfacet
  facet normal 0 0 -1
    outer loop
      vertex 0.951056 0.309016 -1
      vertex 9.20792 12 -1
      vertex 0.987688 0.156434 -1
    endloop
  endfacet
  facet normal 0 0 -1
    outer loop
      vertex 0.891006 0.45399 -1
      vertex 9.20792 12 -1
      vertex 0.951056 0.309016 -1
    endloop
  endfacet
  facet normal 0 0 -1
    outer loop
      vertex 0.809016 0.587785 -1
      vertex 9.20792 12 -1
      vertex 0.891006 0.45399 -1
    endloop
  endfacet
  facet normal 0 0 -1
    outer loop
      vertex 0.707107 0.707107 -1
      vertex 9.20792 12 -1
      vertex 0.809016 0.587785 -1
    endloop
  endfacet
  facet normal 0 0 -1
    outer loop
      vertex 0.587785 0.809016 -1
      vertex 9.20792 12 -1
      vertex 0.707107 0.707107 -1
    endloop
  endfacet
  facet normal 0 0 -1
    outer loop
      vertex 0.45399 0.891006 -1
      vertex 9.20792 12 -1
      vertex 0.587785 0.809016 -1
    endloop
  endfacet
  facet normal 0 0 -1
    outer loop
      vertex 0.309016 0.951056 -1
      vertex 9.20792 12 -1
      vertex 0.45399 0.891006 -1
    endloop
  endfacet
  facet normal 0 0 -1
    outer loop
      vertex 0.156434 0.987688 -1
      vertex 9.20792 12 -1
      vertex 0.309016 0.951056 -1
    endloop
  endfacet
  facet normal 0 0 -1
    outer loop
      vertex 0 1 -1
      vertex 9.20792 12 -1
      vertex 0.156434 0.987688 -1
    endloop
  endfacet
  facet normal 0 0 -1
    outer loop
      vertex -0.156434 0.987688 -1
      vertex 9.20792 12 -1
      vertex 0 1 -1
    endloop
  endfacet
  facet normal 0 0 -1
    outer loop
      vertex -0.309016 0.951056 -1
      vertex 9.20792 12 -1
      vertex -0.156434 0.987688 -1
    endloop
  endfacet
  facet normal 0 0 -1
    outer loop
      vertex -0.45399 0.891006 -1
      vertex 9.20792 12 -1
      vertex -0.309016 0.951056 -1
    endloop
  endfacet
  facet normal 0 0 -1
    outer loop
      vertex -0.587785 0.809016 -1
      vertex 9.20792 12 -1
      vertex -0.45399 0.891006 -1
    endloop
  endfacet
  facet normal 0 0 -1
    outer loop
      vertex -4.57579 55.7141 -1
      vertex -0.587785 0.809016 -1
      vertex -0.707107 0.707107 -1
    endloop
  endfacet
  facet normal 0 0 -1
    outer loop
      vertex -4.57579 55.7141 -1
      vertex 9.20792 12 -1
      vertex -0.587785 0.809016 -1
    endloop
  endfacet
  facet normal 0 0 -1
    outer loop
      vertex -4.57579 55.7141 -1
      vertex -0.707107 0.707107 -1
      vertex -0.809016 0.587785 -1
    endloop
  endfacet
  facet normal 0 0 -1
    outer loop
      vertex -4.57579 55.7141 -1
      vertex -0.809016 0.587785 -1
      vertex -0.891006 0.45399 -1
    endloop
  endfacet
  facet normal 0 0 -1
    outer loop
      vertex -4.57579 55.7141 -1
      vertex -0.891006 0.45399 -1
      vertex -0.951056 0.309016 -1
    endloop
  endfacet
  facet normal 0 0 -1
    outer loop
      vertex -4.57579 55.7141 -1
      vertex -0.951056 0.309016 -1
      vertex -0.987688 0.156434 -1
    endloop
  endfacet
  facet normal 0 0 -1
    outer loop
      vertex -4.57579 55.7141 -1
      vertex -0.987688 0.156434 -1
      vertex -1 0 -1
    endloop
  endfacet
  facet normal -0 0 -1
    outer loop
      vertex -0.891006 -0.45399 -1
      vertex -15.5 -12 -1
      vertex -0.951056 -0.309016 -1
    endloop
  endfacet
  facet normal -0 0 -1
    outer loop
      vertex -0.951056 -0.309016 -1
      vertex -15.5 -12 -1
      vertex -0.987688 -0.156434 -1
    endloop
  endfacet
  facet normal 0 -0 -1
    outer loop
      vertex -4.57579 -55.7141 -1
      vertex -3.67921 -60.0955 -1
      vertex -7.54292 -59.0602 -1
    endloop
  endfacet
  facet normal 0 0 -1
    outer loop
      vertex -69 -4 -1
      vertex -65 2 -1
      vertex -65 -2 -1
    endloop
  endfacet
  facet normal -0 0 -1
    outer loop
      vertex -65 2 -1
      vertex -69 -4 -1
      vertex -69 4 -1
    endloop
  endfacet
  facet normal 0 0 -1
    outer loop
      vertex -65 -2 -1
      vertex -63 -12 -1
      vertex -65 -10 -1
    endloop
  endfacet
  facet normal 0 0 -1
    outer loop
      vertex -69 -12 -1
      vertex -65 -10 -1
      vertex -63 -12 -1
    endloop
  endfacet
  facet normal -0 0 -1
    outer loop
      vertex -65 -10 -1
      vertex -69 -12 -1
      vertex -69 -8 -1
    endloop
  endfacet
  facet normal 0 0 -1
    outer loop
      vertex -63 -12 -1
      vertex -65 -2 -1
      vertex -63 12 -1
    endloop
  endfacet
  facet normal 0 0 -1
    outer loop
      vertex -65 2 -1
      vertex -63 12 -1
      vertex -65 -2 -1
    endloop
  endfacet
  facet normal 0 0 -1
    outer loop
      vertex -65 10 -1
      vertex -63 12 -1
      vertex -65 2 -1
    endloop
  endfacet
  facet normal 0 0 -1
    outer loop
      vertex -69 12 -1
      vertex -65 10 -1
      vertex -69 8 -1
    endloop
  endfacet
  facet normal 0 0 -1
    outer loop
      vertex -65 10 -1
      vertex -69 12 -1
      vertex -63 12 -1
    endloop
  endfacet
  facet normal 0 0 1
    outer loop
      vertex -69 4 3
      vertex -65 -2 3
      vertex -65 2 3
    endloop
  endfacet
  facet normal 0 0 1
    outer loop
      vertex -65 -2 3
      vertex -69 4 3
      vertex -69 -4 3
    endloop
  endfacet
  facet normal 0 0 1
    outer loop
      vertex -65 2 3
      vertex -63.005 12 3
      vertex -65 10 3
    endloop
  endfacet
  facet normal -0 0 1
    outer loop
      vertex -69 12 3
      vertex -65 10 3
      vertex -63.005 12 3
    endloop
  endfacet
  facet normal 0 0 1
    outer loop
      vertex -65 10 3
      vertex -69 12 3
      vertex -69 8 3
    endloop
  endfacet
  facet normal 0 0 1
    outer loop
      vertex -63.005 12 3
      vertex -65 2 3
      vertex -63.005 -12 3
    endloop
  endfacet
  facet normal -0 0 1
    outer loop
      vertex -65 -2 3
      vertex -63.005 -12 3
      vertex -65 2 3
    endloop
  endfacet
  facet normal -0 0 1
    outer loop
      vertex -65 -10 3
      vertex -63.005 -12 3
      vertex -65 -2 3
    endloop
  endfacet
  facet normal 0 0 1
    outer loop
      vertex -69 -12 3
      vertex -65 -10 3
      vertex -69 -8 3
    endloop
  endfacet
  facet normal 0 0 1
    outer loop
      vertex -65 -10 3
      vertex -69 -12 3
      vertex -63.005 -12 3
    endloop
  endfacet
  facet normal 0.447214 -0.894427 0
    outer loop
      vertex -69 8 -1
      vertex -65 10 3
      vertex -69 8 3
    endloop
  endfacet
  facet normal 0.447214 -0.894427 0
    outer loop
      vertex -65 10 3
      vertex -69 8 -1
      vertex -65 10 -1
    endloop
  endfacet
  facet normal -1 0 0
    outer loop
      vertex -65 2 -1
      vertex -65 10 3
      vertex -65 10 -1
    endloop
  endfacet
  facet normal -1 -0 0
    outer loop
      vertex -65 10 3
      vertex -65 2 -1
      vertex -65 2 3
    endloop
  endfacet
  facet normal -1 0 0
    outer loop
      vertex -65 -10 -1
      vertex -65 -2 3
      vertex -65 -2 -1
    endloop
  endfacet
  facet normal -1 -0 0
    outer loop
      vertex -65 -2 3
      vertex -65 -10 -1
      vertex -65 -10 3
    endloop
  endfacet
  facet normal 0.447214 0.894427 -0
    outer loop
      vertex -65 2 -1
      vertex -69 4 3
      vertex -65 2 3
    endloop
  endfacet
  facet normal 0.447214 0.894427 0
    outer loop
      vertex -69 4 3
      vertex -65 2 -1
      vertex -69 4 -1
    endloop
  endfacet
  facet normal -1 0 0
    outer loop
      vertex -69 -4 -1
      vertex -69 4 3
      vertex -69 4 -1
    endloop
  endfacet
  facet normal -1 -0 0
    outer loop
      vertex -69 4 3
      vertex -69 -4 -1
      vertex -69 -4 3
    endloop
  endfacet
  facet normal 0.447214 -0.894427 0
    outer loop
      vertex -69 -4 -1
      vertex -65 -2 3
      vertex -69 -4 3
    endloop
  endfacet
  facet normal 0.447214 -0.894427 0
    outer loop
      vertex -65 -2 3
      vertex -69 -4 -1
      vertex -65 -2 -1
    endloop
  endfacet
  facet normal 0.447214 0.894427 -0
    outer loop
      vertex -65 -10 -1
      vertex -69 -8 3
      vertex -65 -10 3
    endloop
  endfacet
  facet normal 0.447214 0.894427 0
    outer loop
      vertex -69 -8 3
      vertex -65 -10 -1
      vertex -69 -8 -1
    endloop
  endfacet
  facet normal -1 0 0
    outer loop
      vertex -69 -12 -1
      vertex -69 -8 3
      vertex -69 -8 -1
    endloop
  endfacet
  facet normal -1 -0 0
    outer loop
      vertex -69 -8 3
      vertex -69 -12 -1
      vertex -69 -12 3
    endloop
  endfacet
  facet normal 0 -1 0
    outer loop
      vertex -69 -12 3
      vertex -63.0079 -12 1.00233
      vertex -63.005 -12 3
    endloop
  endfacet
  facet normal 0 -1 0
    outer loop
      vertex -69 -12 -1
      vertex -63.0079 -12 1.00233
      vertex -69 -12 3
    endloop
  endfacet
  facet normal 0 -1 0
    outer loop
      vertex -63 -12 -1
      vertex -63.0079 -12 1.00233
      vertex -69 -12 -1
    endloop
  endfacet
  facet normal 0 -1 -0
    outer loop
      vertex -63.005 -12 3
      vertex -63.0079 -12 1.00233
      vertex -63.005 -12 1.00233
    endloop
  endfacet
  facet normal 0 -1 0
    outer loop
      vertex -15.6387 -12 -1
      vertex -19.4906 -12 4.995
      vertex -59.0094 -12 4.995
    endloop
  endfacet
  facet normal 0 -1 0
    outer loop
      vertex -19.4906 -12 4.995
      vertex -15.6387 -12 1
      vertex -15.5 -12 1.0044
    endloop
  endfacet
  facet normal 0 -1 0
    outer loop
      vertex -63 -12 -1
      vertex -59.0094 -12 4.995
      vertex -63.005 -12 0.999396
    endloop
  endfacet
  facet normal 0 -1 0
    outer loop
      vertex -63.0079 -12 1.00233
      vertex -63 -12 -1
      vertex -63.005 -12 0.999396
    endloop
  endfacet
  facet normal 0 -1 0
    outer loop
      vertex -63 -12 -1.005
      vertex -59.0094 -12 4.995
      vertex -63 -12 -1
    endloop
  endfacet
  facet normal 0 -1 0
    outer loop
      vertex -19.4906 -12 4.995
      vertex -15.6387 -12 -1
      vertex -15.6387 -12 1
    endloop
  endfacet
  facet normal 0 -1 -0
    outer loop
      vertex -59.0094 -12 4.995
      vertex -63 -12 -1.005
      vertex -15.6387 -12 -1
    endloop
  endfacet
  facet normal 0 -1 0
    outer loop
      vertex -15.5 -12 -1.005
      vertex -15.6387 -12 -1
      vertex -63 -12 -1.005
    endloop
  endfacet
  facet normal 0 -1 0
    outer loop
      vertex -15.6387 -12 -1
      vertex -15.5 -12 -1.005
      vertex -15.5 -12 -1
    endloop
  endfacet
  facet normal 0 -1 -0
    outer loop
      vertex -15.5 -12 1.0044
      vertex -15.6387 -12 1
      vertex -15.5 -12 1
    endloop
  endfacet
  facet normal 0 -1 0
    outer loop
      vertex 9.20792 -12 1
      vertex 9.20792 -12 -1
      vertex 43 -12 1
    endloop
  endfacet
  facet normal 0 -1 0
    outer loop
      vertex 43 -12 1
      vertex 49 -12 3
      vertex 43 -12 3
    endloop
  endfacet
  facet normal 0 -1 0
    outer loop
      vertex 43 -12 1
      vertex 49 -12 -1
      vertex 49 -12 3
    endloop
  endfacet
  facet normal 0 -1 0
    outer loop
      vertex 49 -12 -1
      vertex 43 -12 1
      vertex 9.20792 -12 -1
    endloop
  endfacet
  facet normal -1 0 0
    outer loop
      vertex -63 -12 -1.005
      vertex -63 12 -1
      vertex -63 12 -1.005
    endloop
  endfacet
  facet normal -1 -0 0
    outer loop
      vertex -63 12 -1
      vertex -63 -12 -1.005
      vertex -63 -12 -1
    endloop
  endfacet
  facet normal 1 -0 0
    outer loop
      vertex -63 -9.9953 1.0044
      vertex -63 -2.0025 1
      vertex -63 -2.0047 1.0044
    endloop
  endfacet
  facet normal 1 0 0
    outer loop
      vertex -63 -2.0025 1
      vertex -63 -9.9953 1.0044
      vertex -63 -9.9975 1
    endloop
  endfacet
  facet normal 1 -0 0
    outer loop
      vertex -63 2.0047 1.0044
      vertex -63 9.9975 1
      vertex -63 9.9953 1.0044
    endloop
  endfacet
  facet normal 1 0 0
    outer loop
      vertex -63 9.9975 1
      vertex -63 2.0047 1.0044
      vertex -63 2.0025 1
    endloop
  endfacet
  facet normal 0 1 -0
    outer loop
      vertex -15.6387 12 1
      vertex -19.4906 12 4.995
      vertex -15.5 12 1.0044
    endloop
  endfacet
  facet normal 0 1 0
    outer loop
      vertex -15.6387 12 1
      vertex -15.5 12 1.0044
      vertex -15.5 12 1
    endloop
  endfacet
  facet normal 0 1 -0
    outer loop
      vertex -15.6387 12 -1
      vertex -19.4906 12 4.995
      vertex -15.6387 12 1
    endloop
  endfacet
  facet normal 0 1 0
    outer loop
      vertex -19.4906 12 4.995
      vertex -15.6387 12 -1
      vertex -59.0094 12 4.995
    endloop
  endfacet
  facet normal 0 1 0
    outer loop
      vertex -63 12 -1.005
      vertex -59.0094 12 4.995
      vertex -15.6387 12 -1
    endloop
  endfacet
  facet normal 0 1 0
    outer loop
      vertex -63.0079 12 1.00233
      vertex -63.005 12 3
      vertex -63.005 12 1.00233
    endloop
  endfacet
  facet normal 0 1 0
    outer loop
      vertex -63.005 12 3
      vertex -63.0079 12 1.00233
      vertex -69 12 3
    endloop
  endfacet
  facet normal 0 1 0
    outer loop
      vertex -63 12 -1
      vertex -63.0079 12 1.00233
      vertex -63.005 12 0.999396
    endloop
  endfacet
  facet normal 0 1 0
    outer loop
      vertex -59.0094 12 4.995
      vertex -63 12 -1
      vertex -63.005 12 0.999396
    endloop
  endfacet
  facet normal 0 1 0
    outer loop
      vertex -63.0079 12 1.00233
      vertex -63 12 -1
      vertex -69 12 -1
    endloop
  endfacet
  facet normal 0 1 0
    outer loop
      vertex -63.0079 12 1.00233
      vertex -69 12 -1
      vertex -69 12 3
    endloop
  endfacet
  facet normal 0 1 -0
    outer loop
      vertex -15.5 12 -1.005
      vertex -15.6387 12 -1
      vertex -15.5 12 -1
    endloop
  endfacet
  facet normal 0 1 0
    outer loop
      vertex -63 12 -1.005
      vertex -15.6387 12 -1
      vertex -15.5 12 -1.005
    endloop
  endfacet
  facet normal 0 1 0
    outer loop
      vertex -59.0094 12 4.995
      vertex -63 12 -1.005
      vertex -63 12 -1
    endloop
  endfacet
  facet normal 0 1 0
    outer loop
      vertex 49 12 3
      vertex 43 12 1
      vertex 43 12 3
    endloop
  endfacet
  facet normal 0 1 -0
    outer loop
      vertex 49 12 -1
      vertex 43 12 1
      vertex 49 12 3
    endloop
  endfacet
  facet normal 0 1 0
    outer loop
      vertex 9.20792 12 -1
      vertex 43 12 1
      vertex 49 12 -1
    endloop
  endfacet
  facet normal 0 1 0
    outer loop
      vertex 43 12 1
      vertex 9.20792 12 -1
      vertex 9.20792 12 1
    endloop
  endfacet
  facet normal -1 0 0
    outer loop
      vertex -69 8 -1
      vertex -69 12 3
      vertex -69 12 -1
    endloop
  endfacet
  facet normal -1 -0 0
    outer loop
      vertex -69 12 3
      vertex -69 8 -1
      vertex -69 8 3
    endloop
  endfacet
  facet normal -0 0 1
    outer loop
      vertex -63 -2.0025 1
      vertex -15.5 -9.9975 1
      vertex -15.5 -2.0025 1
    endloop
  endfacet
  facet normal 0 0 1
    outer loop
      vertex -15.5 -9.9975 1
      vertex -63 -2.0025 1
      vertex -63 -9.9975 1
    endloop
  endfacet
  facet normal -0 0 1
    outer loop
      vertex -63 9.9975 1
      vertex -15.5 2.0025 1
      vertex -15.5 9.9975 1
    endloop
  endfacet
  facet normal 0 0 1
    outer loop
      vertex -15.5 2.0025 1
      vertex -63 9.9975 1
      vertex -63 2.0025 1
    endloop
  endfacet
  facet normal 0 0 1
    outer loop
      vertex 9.20792 -12 1
      vertex -15.4944 -12.005 1
      vertex -2.1263 -54.2999 1
    endloop
  endfacet
  facet normal 0 0 1
    outer loop
      vertex -25.3085 -48.0882 1
      vertex -15.4944 -12.005 1
      vertex -15.4956 -12.005 1
    endloop
  endfacet
  facet normal 0 0 1
    outer loop
      vertex -15.4956 12.005 1
      vertex -15.5 9.9975 1
      vertex -15.4956 -12.005 1
    endloop
  endfacet
  facet normal -0 0 1
    outer loop
      vertex -15.5 2.0025 1
      vertex -15.4956 -12.005 1
      vertex -15.5 9.9975 1
    endloop
  endfacet
  facet normal -0 0 1
    outer loop
      vertex -15.5 -2.0025 1
      vertex -15.4956 -12.005 1
      vertex -15.5 2.0025 1
    endloop
  endfacet
  facet normal -0 0 1
    outer loop
      vertex -15.5 -9.9975 1
      vertex -15.4956 -12.005 1
      vertex -15.5 -2.0025 1
    endloop
  endfacet
  facet normal -0 0 1
    outer loop
      vertex -15.5 -12 1
      vertex -15.4956 -12.005 1
      vertex -15.5 -9.9975 1
    endloop
  endfacet
  facet normal -0 0 1
    outer loop
      vertex -15.6387 -12 1
      vertex -15.4956 -12.005 1
      vertex -15.5 -12 1
    endloop
  endfacet
  facet normal 0 0 1
    outer loop
      vertex -15.4956 -12.005 1
      vertex -15.6387 -12 1
      vertex -25.3085 -48.0882 1
    endloop
  endfacet
  facet normal 0 0 1
    outer loop
      vertex -15.4944 -12.005 1
      vertex -25.3085 -48.0882 1
      vertex -2.1263 -54.2999 1
    endloop
  endfacet
  facet normal -0 0 1
    outer loop
      vertex 9.20792 12 1
      vertex 43 -12 1
      vertex 43 12 1
    endloop
  endfacet
  facet normal 0 0 1
    outer loop
      vertex 9.20792 12 1
      vertex 9.20792 -12 1
      vertex 43 -12 1
    endloop
  endfacet
  facet normal 0 0 1
    outer loop
      vertex 9.20792 12 1
      vertex 1 0 1
      vertex 9.20792 -12 1
    endloop
  endfacet
  facet normal 0 0 1
    outer loop
      vertex 9.20792 12 1
      vertex 0.987688 0.156434 1
      vertex 1 0 1
    endloop
  endfacet
  facet normal 0 0 1
    outer loop
      vertex 9.20792 12 1
      vertex 0.951056 0.309016 1
      vertex 0.987688 0.156434 1
    endloop
  endfacet
  facet normal 0 0 1
    outer loop
      vertex 9.20792 12 1
      vertex 0.891006 0.45399 1
      vertex 0.951056 0.309016 1
    endloop
  endfacet
  facet normal 0 0 1
    outer loop
      vertex 9.20792 12 1
      vertex 0.809016 0.587785 1
      vertex 0.891006 0.45399 1
    endloop
  endfacet
  facet normal 0 0 1
    outer loop
      vertex 9.20792 12 1
      vertex 0.707107 0.707107 1
      vertex 0.809016 0.587785 1
    endloop
  endfacet
  facet normal 0 0 1
    outer loop
      vertex 9.20792 12 1
      vertex 0.587785 0.809016 1
      vertex 0.707107 0.707107 1
    endloop
  endfacet
  facet normal 0 0 1
    outer loop
      vertex 9.20792 12 1
      vertex 0.45399 0.891006 1
      vertex 0.587785 0.809016 1
    endloop
  endfacet
  facet normal 0 0 1
    outer loop
      vertex 9.20792 12 1
      vertex 0.309016 0.951056 1
      vertex 0.45399 0.891006 1
    endloop
  endfacet
  facet normal 0 0 1
    outer loop
      vertex 9.20792 12 1
      vertex 0.156434 0.987688 1
      vertex 0.309016 0.951056 1
    endloop
  endfacet
  facet normal 0 0 1
    outer loop
      vertex 9.20792 12 1
      vertex 0 1 1
      vertex 0.156434 0.987688 1
    endloop
  endfacet
  facet normal 0 0 1
    outer loop
      vertex 9.20792 12 1
      vertex -0.156434 0.987688 1
      vertex 0 1 1
    endloop
  endfacet
  facet normal 0 0 1
    outer loop
      vertex 9.20792 12 1
      vertex -0.309016 0.951056 1
      vertex -0.156434 0.987688 1
    endloop
  endfacet
  facet normal 0 0 1
    outer loop
      vertex -15.4944 12.005 1
      vertex -0.309016 0.951056 1
      vertex 9.20792 12 1
    endloop
  endfacet
  facet normal 0 0 1
    outer loop
      vertex -0.309016 0.951056 1
      vertex -15.4944 12.005 1
      vertex -0.45399 0.891006 1
    endloop
  endfacet
  facet normal 0 0 1
    outer loop
      vertex -0.45399 0.891006 1
      vertex -15.4944 12.005 1
      vertex -0.587785 0.809016 1
    endloop
  endfacet
  facet normal 0 0 1
    outer loop
      vertex -0.951056 0.309016 1
      vertex -15.4944 12.005 1
      vertex -0.987688 0.156434 1
    endloop
  endfacet
  facet normal 0 0 1
    outer loop
      vertex -0.891006 0.45399 1
      vertex -15.4944 12.005 1
      vertex -0.951056 0.309016 1
    endloop
  endfacet
  facet normal 0 0 1
    outer loop
      vertex -0.809016 0.587785 1
      vertex -15.4944 12.005 1
      vertex -0.891006 0.45399 1
    endloop
  endfacet
  facet normal 0 0 1
    outer loop
      vertex -0.707107 0.707107 1
      vertex -15.4944 12.005 1
      vertex -0.809016 0.587785 1
    endloop
  endfacet
  facet normal 0 0 1
    outer loop
      vertex -0.587785 0.809016 1
      vertex -15.4944 12.005 1
      vertex -0.707107 0.707107 1
    endloop
  endfacet
  facet normal -0 0 1
    outer loop
      vertex -15.4944 12.005 1
      vertex 9.20792 12 1
      vertex -2.1263 54.2999 1
    endloop
  endfacet
  facet normal -0 0 1
    outer loop
      vertex 0.987688 -0.156434 1
      vertex 9.20792 -12 1
      vertex 1 0 1
    endloop
  endfacet
  facet normal -0 0 1
    outer loop
      vertex 0.951056 -0.309016 1
      vertex 9.20792 -12 1
      vertex 0.987688 -0.156434 1
    endloop
  endfacet
  facet normal -0 0 1
    outer loop
      vertex 0.891006 -0.45399 1
      vertex 9.20792 -12 1
      vertex 0.951056 -0.309016 1
    endloop
  endfacet
  facet normal -0 0 1
    outer loop
      vertex 0.809016 -0.587785 1
      vertex 9.20792 -12 1
      vertex 0.891006 -0.45399 1
    endloop
  endfacet
  facet normal -0 0 1
    outer loop
      vertex 0.707107 -0.707107 1
      vertex 9.20792 -12 1
      vertex 0.809016 -0.587785 1
    endloop
  endfacet
  facet normal -0 0 1
    outer loop
      vertex 0.587785 -0.809016 1
      vertex 9.20792 -12 1
      vertex 0.707107 -0.707107 1
    endloop
  endfacet
  facet normal -0 0 1
    outer loop
      vertex 0.45399 -0.891006 1
      vertex 9.20792 -12 1
      vertex 0.587785 -0.809016 1
    endloop
  endfacet
  facet normal -0 0 1
    outer loop
      vertex 0.309016 -0.951056 1
      vertex 9.20792 -12 1
      vertex 0.45399 -0.891006 1
    endloop
  endfacet
  facet normal -0 0 1
    outer loop
      vertex 0.156434 -0.987688 1
      vertex 9.20792 -12 1
      vertex 0.309016 -0.951056 1
    endloop
  endfacet
  facet normal -0 0 1
    outer loop
      vertex 0 -1 1
      vertex 9.20792 -12 1
      vertex 0.156434 -0.987688 1
    endloop
  endfacet
  facet normal 0 0 1
    outer loop
      vertex -0.156434 -0.987688 1
      vertex 9.20792 -12 1
      vertex 0 -1 1
    endloop
  endfacet
  facet normal 0 0 1
    outer loop
      vertex -0.309016 -0.951056 1
      vertex 9.20792 -12 1
      vertex -0.156434 -0.987688 1
    endloop
  endfacet
  facet normal 0 0 1
    outer loop
      vertex -15.4944 -12.005 1
      vertex -0.309016 -0.951056 1
      vertex -0.45399 -0.891006 1
    endloop
  endfacet
  facet normal 0 0 1
    outer loop
      vertex -15.4944 -12.005 1
      vertex -0.45399 -0.891006 1
      vertex -0.587785 -0.809016 1
    endloop
  endfacet
  facet normal 0 0 1
    outer loop
      vertex -15.4944 -12.005 1
      vertex -0.587785 -0.809016 1
      vertex -0.707107 -0.707107 1
    endloop
  endfacet
  facet normal 0 0 1
    outer loop
      vertex -0.309016 -0.951056 1
      vertex -15.4944 -12.005 1
      vertex 9.20792 -12 1
    endloop
  endfacet
  facet normal 0 0 1
    outer loop
      vertex -15.4944 -12.005 1
      vertex -0.707107 -0.707107 1
      vertex -0.809016 -0.587785 1
    endloop
  endfacet
  facet normal 0 0 1
    outer loop
      vertex -0.951056 -0.309016 1
      vertex -15.4944 -12.005 1
      vertex -0.891006 -0.45399 1
    endloop
  endfacet
  facet normal 0 0 1
    outer loop
      vertex -0.987688 -0.156434 1
      vertex -15.4944 -12.005 1
      vertex -0.951056 -0.309016 1
    endloop
  endfacet
  facet normal 0 0 1
    outer loop
      vertex -1 0 1
      vertex -15.4944 -12.005 1
      vertex -0.987688 -0.156434 1
    endloop
  endfacet
  facet normal 0 0 1
    outer loop
      vertex -15.4944 -12.005 1
      vertex -1 0 1
      vertex -15.4944 12.005 1
    endloop
  endfacet
  facet normal 0 0 1
    outer loop
      vertex -0.987688 0.156434 1
      vertex -15.4944 12.005 1
      vertex -1 0 1
    endloop
  endfacet
  facet normal 0 0 1
    outer loop
      vertex -0.891006 -0.45399 1
      vertex -15.4944 -12.005 1
      vertex -0.809016 -0.587785 1
    endloop
  endfacet
  facet normal -0 0 1
    outer loop
      vertex -25.3085 48.0882 1
      vertex -15.4944 12.005 1
      vertex -2.1263 54.2999 1
    endloop
  endfacet
  facet normal 0 0 1
    outer loop
      vertex -15.5 9.9975 1
      vertex -15.4956 12.005 1
      vertex -15.5 12 1
    endloop
  endfacet
  facet normal 0 0 1
    outer loop
      vertex -15.4944 12.005 1
      vertex -25.3085 48.0882 1
      vertex -15.4956 12.005 1
    endloop
  endfacet
  facet normal 0 -0 1
    outer loop
      vertex -15.6387 12 1
      vertex -15.4956 12.005 1
      vertex -25.3085 48.0882 1
    endloop
  endfacet
  facet normal 0 0 1
    outer loop
      vertex -15.4956 12.005 1
      vertex -15.6387 12 1
      vertex -15.5 12 1
    endloop
  endfacet
  facet normal 0 0 1
    outer loop
      vertex 49 12 3
      vertex 45 10 3
      vertex 49 8 3
    endloop
  endfacet
  facet normal 0 0 1
    outer loop
      vertex 43 12 3
      vertex 45 2 3
      vertex 45 10 3
    endloop
  endfacet
  facet normal 0 0 1
    outer loop
      vertex 45 2 3
      vertex 43 12 3
      vertex 45 -2 3
    endloop
  endfacet
  facet normal 0 0 1
    outer loop
      vertex 43 -12 3
      vertex 45 -2 3
      vertex 43 12 3
    endloop
  endfacet
  facet normal -0 0 1
    outer loop
      vertex 43 12 3
      vertex 45 10 3
      vertex 49 12 3
    endloop
  endfacet
  facet normal -0 0 1
    outer loop
      vertex 45 2 3
      vertex 49 -4 3
      vertex 49 4 3
    endloop
  endfacet
  facet normal 0 0 1
    outer loop
      vertex 49 -4 3
      vertex 45 2 3
      vertex 45 -2 3
    endloop
  endfacet
  facet normal -0 0 1
    outer loop
      vertex 45 -10 3
      vertex 49 -12 3
      vertex 49 -8 3
    endloop
  endfacet
  facet normal 0 0 1
    outer loop
      vertex 45 -10 3
      vertex 43 -12 3
      vertex 49 -12 3
    endloop
  endfacet
  facet normal 0 0 1
    outer loop
      vertex 45 -2 3
      vertex 43 -12 3
      vertex 45 -10 3
    endloop
  endfacet
  facet normal -0.447214 0.894427 0
    outer loop
      vertex 49 -8 -1
      vertex 45 -10 3
      vertex 49 -8 3
    endloop
  endfacet
  facet normal -0.447214 0.894427 0
    outer loop
      vertex 45 -10 3
      vertex 49 -8 -1
      vertex 45 -10 -1
    endloop
  endfacet
  facet normal 1 -0 0
    outer loop
      vertex 45 -10 3
      vertex 45 -2 -1
      vertex 45 -2 3
    endloop
  endfacet
  facet normal 1 0 0
    outer loop
      vertex 45 -2 -1
      vertex 45 -10 3
      vertex 45 -10 -1
    endloop
  endfacet
  facet normal 1 -0 0
    outer loop
      vertex 45 2 3
      vertex 45 10 -1
      vertex 45 10 3
    endloop
  endfacet
  facet normal 1 0 0
    outer loop
      vertex 45 10 -1
      vertex 45 2 3
      vertex 45 2 -1
    endloop
  endfacet
  facet normal -0.447214 -0.894427 0
    outer loop
      vertex 45 -2 -1
      vertex 49 -4 3
      vertex 45 -2 3
    endloop
  endfacet
  facet normal -0.447214 -0.894427 -0
    outer loop
      vertex 49 -4 3
      vertex 45 -2 -1
      vertex 49 -4 -1
    endloop
  endfacet
  facet normal 1 -0 0
    outer loop
      vertex 49 -4 3
      vertex 49 4 -1
      vertex 49 4 3
    endloop
  endfacet
  facet normal 1 0 0
    outer loop
      vertex 49 4 -1
      vertex 49 -4 3
      vertex 49 -4 -1
    endloop
  endfacet
  facet normal -0.447214 0.894427 0
    outer loop
      vertex 49 4 -1
      vertex 45 2 3
      vertex 49 4 3
    endloop
  endfacet
  facet normal -0.447214 0.894427 0
    outer loop
      vertex 45 2 3
      vertex 49 4 -1
      vertex 45 2 -1
    endloop
  endfacet
  facet normal -0.447214 -0.894427 0
    outer loop
      vertex 45 10 -1
      vertex 49 8 3
      vertex 45 10 3
    endloop
  endfacet
  facet normal -0.447214 -0.894427 -0
    outer loop
      vertex 49 8 3
      vertex 45 10 -1
      vertex 49 8 -1
    endloop
  endfacet
  facet normal 1 -0 0
    outer loop
      vertex 49 8 3
      vertex 49 12 -1
      vertex 49 12 3
    endloop
  endfacet
  facet normal 1 0 0
    outer loop
      vertex 49 12 -1
      vertex 49 8 3
      vertex 49 8 -1
    endloop
  endfacet
  facet normal -1 0 0
    outer loop
      vertex 43 -12 1
      vertex 43 12 3
      vertex 43 12 1
    endloop
  endfacet
  facet normal -1 -0 0
    outer loop
      vertex 43 12 3
      vertex 43 -12 1
      vertex 43 -12 3
    endloop
  endfacet
  facet normal 1 -0 0
    outer loop
      vertex 49 -12 3
      vertex 49 -8 -1
      vertex 49 -8 3
    endloop
  endfacet
  facet normal 1 0 0
    outer loop
      vertex 49 -8 -1
      vertex 49 -12 3
      vertex 49 -12 -1
    endloop
  endfacet
  facet normal 0 0 1
    outer loop
      vertex -11.4066 58.0249 3
      vertex -16.1669 52.6083 3
      vertex -12.3032 53.6436 3
    endloop
  endfacet
  facet normal 0 -0 1
    outer loop
      vertex -16.1669 52.6083 3
      vertex -11.4066 58.0249 3
      vertex -19.134 55.9543 3
    endloop
  endfacet
  facet normal 0 0 1
    outer loop
      vertex -3.67921 60.0955 3
      vertex -7.54292 59.0602 3
      vertex -4.57579 55.7141 3
    endloop
  endfacet
  facet normal -0 0 1
    outer loop
      vertex -4.57579 55.7141 3
      vertex -2.1263 54.2999 3
      vertex -3.67921 60.0955 3
    endloop
  endfacet
  facet normal 0 0 1
    outer loop
      vertex -12.3032 53.6436 3
      vertex -2.1263 54.2999 3
      vertex -4.57579 55.7141 3
    endloop
  endfacet
  facet normal 0 0 1
    outer loop
      vertex -16.1669 52.6083 3
      vertex -2.1263 54.2999 3
      vertex -12.3032 53.6436 3
    endloop
  endfacet
  facet normal 0 0 1
    outer loop
      vertex -25.3085 48.0882 3
      vertex -16.1669 52.6083 3
      vertex -23.8943 50.5377 3
    endloop
  endfacet
  facet normal -0 0 1
    outer loop
      vertex -16.1669 52.6083 3
      vertex -25.3085 48.0882 3
      vertex -2.1263 54.2999 3
    endloop
  endfacet
  facet normal -0 0 1
    outer loop
      vertex -26.8614 53.8838 3
      vertex -23.8943 50.5377 3
      vertex -22.9977 54.9191 3
    endloop
  endfacet
  facet normal 0 0 1
    outer loop
      vertex -23.8943 50.5377 3
      vertex -26.8614 53.8838 3
      vertex -25.3085 48.0882 3
    endloop
  endfacet
  facet normal -0.748206 -0.663466 0
    outer loop
      vertex -4.57579 55.7141 -1
      vertex -7.54292 59.0602 3
      vertex -7.54292 59.0602 -1
    endloop
  endfacet
  facet normal -0.748206 -0.663466 0
    outer loop
      vertex -7.54292 59.0602 3
      vertex -4.57579 55.7141 -1
      vertex -4.57579 55.7141 3
    endloop
  endfacet
  facet normal -0.258813 0.965927 0
    outer loop
      vertex -4.57579 55.7141 -1
      vertex -12.3032 53.6436 3
      vertex -4.57579 55.7141 3
    endloop
  endfacet
  facet normal -0.258813 0.965927 0
    outer loop
      vertex -12.3032 53.6436 3
      vertex -4.57579 55.7141 -1
      vertex -12.3032 53.6436 -1
    endloop
  endfacet
  facet normal -0.258825 0.965924 0
    outer loop
      vertex -16.1669 52.6083 -1
      vertex -23.8943 50.5377 3
      vertex -16.1669 52.6083 3
    endloop
  endfacet
  facet normal -0.258825 0.965924 0
    outer loop
      vertex -23.8943 50.5377 3
      vertex -16.1669 52.6083 -1
      vertex -23.8943 50.5377 -1
    endloop
  endfacet
  facet normal 0.979696 -0.200487 0
    outer loop
      vertex -12.3032 53.6436 3
      vertex -11.4066 58.0249 -1
      vertex -11.4066 58.0249 3
    endloop
  endfacet
  facet normal 0.979696 -0.200487 0
    outer loop
      vertex -11.4066 58.0249 -1
      vertex -12.3032 53.6436 3
      vertex -12.3032 53.6436 -1
    endloop
  endfacet
  facet normal -0.258825 0.965924 0
    outer loop
      vertex -11.4066 58.0249 -1
      vertex -19.134 55.9543 3
      vertex -11.4066 58.0249 3
    endloop
  endfacet
  facet normal -0.258825 0.965924 0
    outer loop
      vertex -19.134 55.9543 3
      vertex -11.4066 58.0249 -1
      vertex -19.134 55.9543 -1
    endloop
  endfacet
  facet normal -0.7482 -0.663474 0
    outer loop
      vertex -16.1669 52.6083 -1
      vertex -19.134 55.9543 3
      vertex -19.134 55.9543 -1
    endloop
  endfacet
  facet normal -0.7482 -0.663474 0
    outer loop
      vertex -19.134 55.9543 3
      vertex -16.1669 52.6083 -1
      vertex -16.1669 52.6083 3
    endloop
  endfacet
  facet normal 0.979697 -0.200483 0
    outer loop
      vertex -23.8943 50.5377 3
      vertex -22.9977 54.9191 -1
      vertex -22.9977 54.9191 3
    endloop
  endfacet
  facet normal 0.979697 -0.200483 0
    outer loop
      vertex -22.9977 54.9191 -1
      vertex -23.8943 50.5377 3
      vertex -23.8943 50.5377 -1
    endloop
  endfacet
  facet normal -0.258825 0.965924 0
    outer loop
      vertex -22.9977 54.9191 -1
      vertex -26.8614 53.8838 3
      vertex -22.9977 54.9191 3
    endloop
  endfacet
  facet normal -0.258825 0.965924 0
    outer loop
      vertex -26.8614 53.8838 3
      vertex -22.9977 54.9191 -1
      vertex -26.8614 53.8838 -1
    endloop
  endfacet
  facet normal -0.965927 -0.258815 0
    outer loop
      vertex -26.8614 53.8838 -1
      vertex -25.3085 48.0882 1
      vertex -26.8614 53.8838 3
    endloop
  endfacet
  facet normal -0.965926 -0.258818 -1.06904e-05
    outer loop
      vertex -15.6387 12 -1
      vertex -25.3085 48.0882 1
      vertex -26.8614 53.8838 -1
    endloop
  endfacet
  facet normal -0.965926 -0.258819 0
    outer loop
      vertex -25.3085 48.0882 1
      vertex -15.6387 12 -1
      vertex -15.6387 12 1
    endloop
  endfacet
  facet normal -0.965927 -0.258815 0
    outer loop
      vertex -26.8614 53.8838 3
      vertex -25.3085 48.0882 1
      vertex -25.3085 48.0882 3
    endloop
  endfacet
  facet normal 0.258821 -0.965925 0
    outer loop
      vertex -25.3085 48.0882 1
      vertex -2.1263 54.2999 3
      vertex -25.3085 48.0882 3
    endloop
  endfacet
  facet normal 0.258821 -0.965925 0
    outer loop
      vertex -2.1263 54.2999 3
      vertex -25.3085 48.0882 1
      vertex -2.1263 54.2999 1
    endloop
  endfacet
  facet normal 0.965927 0.258817 -0
    outer loop
      vertex -2.1263 54.2999 1
      vertex -3.67921 60.0955 3
      vertex -2.1263 54.2999 3
    endloop
  endfacet
  facet normal 0.965927 0.258817 0
    outer loop
      vertex -3.67921 60.0955 3
      vertex -2.1263 54.2999 1
      vertex -3.67921 60.0955 -1
    endloop
  endfacet
  facet normal 0.965926 0.258819 -0
    outer loop
      vertex 9.20792 12 -1
      vertex -2.1263 54.2999 1
      vertex 9.20792 12 1
    endloop
  endfacet
  facet normal 0.965926 0.258819 6.70511e-06
    outer loop
      vertex -2.1263 54.2999 1
      vertex 9.20792 12 -1
      vertex -3.67921 60.0955 -1
    endloop
  endfacet
  facet normal -0.258824 0.965924 0
    outer loop
      vertex -3.67921 60.0955 -1
      vertex -7.54292 59.0602 3
      vertex -3.67921 60.0955 3
    endloop
  endfacet
  facet normal -0.258824 0.965924 0
    outer loop
      vertex -7.54292 59.0602 3
      vertex -3.67921 60.0955 -1
      vertex -7.54292 59.0602 -1
    endloop
  endfacet
  facet normal 0 0 1
    outer loop
      vertex -2.1263 -54.2999 3
      vertex -4.57579 -55.7141 3
      vertex -3.67921 -60.0955 3
    endloop
  endfacet
  facet normal 0 0 1
    outer loop
      vertex -2.1263 -54.2999 3
      vertex -12.3032 -53.6436 3
      vertex -4.57579 -55.7141 3
    endloop
  endfacet
  facet normal 0 0 1
    outer loop
      vertex -2.1263 -54.2999 3
      vertex -16.1669 -52.6083 3
      vertex -12.3032 -53.6436 3
    endloop
  endfacet
  facet normal 0 0 1
    outer loop
      vertex -25.3085 -48.0882 3
      vertex -16.1669 -52.6083 3
      vertex -2.1263 -54.2999 3
    endloop
  endfacet
  facet normal 0 0 1
    outer loop
      vertex -16.1669 -52.6083 3
      vertex -25.3085 -48.0882 3
      vertex -23.8943 -50.5377 3
    endloop
  endfacet
  facet normal 0 0 1
    outer loop
      vertex -3.67921 -60.0955 3
      vertex -4.57579 -55.7141 3
      vertex -7.54292 -59.0602 3
    endloop
  endfacet
  facet normal 0 0 1
    outer loop
      vertex -16.1669 -52.6083 3
      vertex -11.4066 -58.0249 3
      vertex -12.3032 -53.6436 3
    endloop
  endfacet
  facet normal 0 0 1
    outer loop
      vertex -11.4066 -58.0249 3
      vertex -16.1669 -52.6083 3
      vertex -19.134 -55.9543 3
    endloop
  endfacet
  facet normal 0 0 1
    outer loop
      vertex -26.8614 -53.8838 3
      vertex -23.8943 -50.5377 3
      vertex -25.3085 -48.0882 3
    endloop
  endfacet
  facet normal 0 0 1
    outer loop
      vertex -23.8943 -50.5377 3
      vertex -26.8614 -53.8838 3
      vertex -22.9977 -54.9191 3
    endloop
  endfacet
  facet normal 0.979697 0.200483 0
    outer loop
      vertex -22.9977 -54.9191 3
      vertex -23.8943 -50.5377 -1
      vertex -23.8943 -50.5377 3
    endloop
  endfacet
  facet normal 0.979697 0.200483 0
    outer loop
      vertex -23.8943 -50.5377 -1
      vertex -22.9977 -54.9191 3
      vertex -22.9977 -54.9191 -1
    endloop
  endfacet
  facet normal -0.258825 -0.965924 0
    outer loop
      vertex -23.8943 -50.5377 -1
      vertex -16.1669 -52.6083 3
      vertex -23.8943 -50.5377 3
    endloop
  endfacet
  facet normal -0.258825 -0.965924 -0
    outer loop
      vertex -16.1669 -52.6083 3
      vertex -23.8943 -50.5377 -1
      vertex -16.1669 -52.6083 -1
    endloop
  endfacet
  facet normal -0.258813 -0.965927 0
    outer loop
      vertex -12.3032 -53.6436 -1
      vertex -4.57579 -55.7141 3
      vertex -12.3032 -53.6436 3
    endloop
  endfacet
  facet normal -0.258813 -0.965927 -0
    outer loop
      vertex -4.57579 -55.7141 3
      vertex -12.3032 -53.6436 -1
      vertex -4.57579 -55.7141 -1
    endloop
  endfacet
  facet normal -0.7482 0.663474 0
    outer loop
      vertex -19.134 -55.9543 -1
      vertex -16.1669 -52.6083 3
      vertex -16.1669 -52.6083 -1
    endloop
  endfacet
  facet normal -0.7482 0.663474 0
    outer loop
      vertex -16.1669 -52.6083 3
      vertex -19.134 -55.9543 -1
      vertex -19.134 -55.9543 3
    endloop
  endfacet
  facet normal -0.258825 -0.965924 0
    outer loop
      vertex -19.134 -55.9543 -1
      vertex -11.4066 -58.0249 3
      vertex -19.134 -55.9543 3
    endloop
  endfacet
  facet normal -0.258825 -0.965924 -0
    outer loop
      vertex -11.4066 -58.0249 3
      vertex -19.134 -55.9543 -1
      vertex -11.4066 -58.0249 -1
    endloop
  endfacet
  facet normal 0.979696 0.200487 0
    outer loop
      vertex -11.4066 -58.0249 3
      vertex -12.3032 -53.6436 -1
      vertex -12.3032 -53.6436 3
    endloop
  endfacet
  facet normal 0.979696 0.200487 0
    outer loop
      vertex -12.3032 -53.6436 -1
      vertex -11.4066 -58.0249 3
      vertex -11.4066 -58.0249 -1
    endloop
  endfacet
  facet normal -0.748206 0.663466 0
    outer loop
      vertex -7.54292 -59.0602 -1
      vertex -4.57579 -55.7141 3
      vertex -4.57579 -55.7141 -1
    endloop
  endfacet
  facet normal -0.748206 0.663466 0
    outer loop
      vertex -4.57579 -55.7141 3
      vertex -7.54292 -59.0602 -1
      vertex -7.54292 -59.0602 3
    endloop
  endfacet
  facet normal -0.258824 -0.965924 0
    outer loop
      vertex -7.54292 -59.0602 -1
      vertex -3.67921 -60.0955 3
      vertex -7.54292 -59.0602 3
    endloop
  endfacet
  facet normal -0.258824 -0.965924 -0
    outer loop
      vertex -3.67921 -60.0955 3
      vertex -7.54292 -59.0602 -1
      vertex -3.67921 -60.0955 -1
    endloop
  endfacet
  facet normal 0.965927 -0.258817 0
    outer loop
      vertex -2.1263 -54.2999 3
      vertex -3.67921 -60.0955 3
      vertex -2.1263 -54.2999 1
    endloop
  endfacet
  facet normal 0.965926 -0.258819 0
    outer loop
      vertex -2.1263 -54.2999 1
      vertex 9.20792 -12 -1
      vertex 9.20792 -12 1
    endloop
  endfacet
  facet normal 0.965926 -0.258819 6.70511e-06
    outer loop
      vertex -2.1263 -54.2999 1
      vertex -3.67921 -60.0955 -1
      vertex 9.20792 -12 -1
    endloop
  endfacet
  facet normal 0.965927 -0.258817 0
    outer loop
      vertex -3.67921 -60.0955 -1
      vertex -2.1263 -54.2999 1
      vertex -3.67921 -60.0955 3
    endloop
  endfacet
  facet normal 0.258821 0.965925 -0
    outer loop
      vertex -2.1263 -54.2999 1
      vertex -25.3085 -48.0882 3
      vertex -2.1263 -54.2999 3
    endloop
  endfacet
  facet normal 0.258821 0.965925 0
    outer loop
      vertex -25.3085 -48.0882 3
      vertex -2.1263 -54.2999 1
      vertex -25.3085 -48.0882 1
    endloop
  endfacet
  facet normal -0.965926 0.258819 0
    outer loop
      vertex -15.6387 -12 -1
      vertex -25.3085 -48.0882 1
      vertex -15.6387 -12 1
    endloop
  endfacet
  facet normal -0.965926 0.258818 -1.06904e-05
    outer loop
      vertex -26.8614 -53.8838 -1
      vertex -25.3085 -48.0882 1
      vertex -15.6387 -12 -1
    endloop
  endfacet
  facet normal -0.965927 0.258815 0
    outer loop
      vertex -26.8614 -53.8838 3
      vertex -25.3085 -48.0882 1
      vertex -26.8614 -53.8838 -1
    endloop
  endfacet
  facet normal -0.965927 0.258815 0
    outer loop
      vertex -25.3085 -48.0882 1
      vertex -26.8614 -53.8838 3
      vertex -25.3085 -48.0882 3
    endloop
  endfacet
  facet normal -0.258825 -0.965924 0
    outer loop
      vertex -26.8614 -53.8838 -1
      vertex -22.9977 -54.9191 3
      vertex -26.8614 -53.8838 3
    endloop
  endfacet
  facet normal -0.258825 -0.965924 -0
    outer loop
      vertex -22.9977 -54.9191 3
      vertex -26.8614 -53.8838 -1
      vertex -22.9977 -54.9191 -1
    endloop
  endfacet
  facet normal 1 -0 0
    outer loop
      vertex -15.5 -12 -1
      vertex -15.5 12 -1.005
      vertex -15.5 12 -1
    endloop
  endfacet
  facet normal 1 0 0
    outer loop
      vertex -15.5 12 -1.005
      vertex -15.5 -12 -1
      vertex -15.5 -12 -1.005
    endloop
  endfacet
  facet normal 1 0 0
    outer loop
      vertex -15.5 2.0047 1.0044
      vertex -15.5 -2.0025 1
      vertex -15.5 2.0025 1
    endloop
  endfacet
  facet normal 1 0 -0
    outer loop
      vertex -15.5 -2.0025 1
      vertex -15.5 2.0047 1.0044
      vertex -15.5 -2.0047 1.0044
    endloop
  endfacet
  facet normal 1 0 0
    outer loop
      vertex -15.5 12 1.0044
      vertex -15.5 9.9975 1
      vertex -15.5 12 1
    endloop
  endfacet
  facet normal 1 0 -0
    outer loop
      vertex -15.5 9.9975 1
      vertex -15.5 12 1.0044
      vertex -15.5 9.9953 1.0044
    endloop
  endfacet
  facet normal 1 -0 0
    outer loop
      vertex -15.5 -12 1.0044
      vertex -15.5 -9.9975 1
      vertex -15.5 -9.9953 1.0044
    endloop
  endfacet
  facet normal 1 0 0
    outer loop
      vertex -15.5 -9.9975 1
      vertex -15.5 -12 1.0044
      vertex -15.5 -12 1
    endloop
  endfacet
  facet normal 1.34545e-06 0.894427 -0.447214
    outer loop
      vertex -15.5 -9.9975 1
      vertex -18.8239 -8.33333 4.32833
      vertex -15.5 -9.9953 1.0044
    endloop
  endfacet
  facet normal 0 0.894427 -0.447215
    outer loop
      vertex -18.8239 -8.33333 4.32833
      vertex -15.5 -9.9975 1
      vertex -59.6761 -8.33333 4.32833
    endloop
  endfacet
  facet normal 0 0.894427 -0.447215
    outer loop
      vertex -63 -9.9975 1
      vertex -59.6761 -8.33333 4.32833
      vertex -15.5 -9.9975 1
    endloop
  endfacet
  facet normal -1.34545e-06 0.894427 -0.447214
    outer loop
      vertex -59.6761 -8.33333 4.32833
      vertex -63 -9.9975 1
      vertex -63 -9.9953 1.0044
    endloop
  endfacet
  facet normal -1.34545e-06 -0.894427 -0.447214
    outer loop
      vertex -63 -2.0025 1
      vertex -59.6761 -3.66667 4.32833
      vertex -63 -2.0047 1.0044
    endloop
  endfacet
  facet normal 0 -0.894427 -0.447215
    outer loop
      vertex -59.6761 -3.66667 4.32833
      vertex -63 -2.0025 1
      vertex -18.8239 -3.66667 4.32833
    endloop
  endfacet
  facet normal -0 -0.894427 -0.447215
    outer loop
      vertex -15.5 -2.0025 1
      vertex -18.8239 -3.66667 4.32833
      vertex -63 -2.0025 1
    endloop
  endfacet
  facet normal 1.34545e-06 -0.894427 -0.447214
    outer loop
      vertex -18.8239 -3.66667 4.32833
      vertex -15.5 -2.0025 1
      vertex -15.5 -2.0047 1.0044
    endloop
  endfacet
  facet normal -0 0 1
    outer loop
      vertex -59.0094 3 4.995
      vertex -19.4906 -3 4.995
      vertex -19.4906 3 4.995
    endloop
  endfacet
  facet normal 0 0 1
    outer loop
      vertex -19.4906 -3 4.995
      vertex -59.0094 3 4.995
      vertex -59.0094 -3 4.995
    endloop
  endfacet
  facet normal 1.34545e-06 0.894427 -0.447214
    outer loop
      vertex -15.5 2.0025 1
      vertex -18.8239 3.66667 4.32833
      vertex -15.5 2.0047 1.0044
    endloop
  endfacet
  facet normal 0 0.894427 -0.447215
    outer loop
      vertex -18.8239 3.66667 4.32833
      vertex -15.5 2.0025 1
      vertex -59.6761 3.66667 4.32833
    endloop
  endfacet
  facet normal 0 0.894427 -0.447215
    outer loop
      vertex -63 2.0025 1
      vertex -59.6761 3.66667 4.32833
      vertex -15.5 2.0025 1
    endloop
  endfacet
  facet normal -1.34545e-06 0.894427 -0.447214
    outer loop
      vertex -59.6761 3.66667 4.32833
      vertex -63 2.0025 1
      vertex -63 2.0047 1.0044
    endloop
  endfacet
  facet normal -1.34545e-06 -0.894427 -0.447214
    outer loop
      vertex -63 9.9975 1
      vertex -59.6761 8.33333 4.32833
      vertex -63 9.9953 1.0044
    endloop
  endfacet
  facet normal 0 -0.894427 -0.447215
    outer loop
      vertex -59.6761 8.33333 4.32833
      vertex -63 9.9975 1
      vertex -18.8239 8.33333 4.32833
    endloop
  endfacet
  facet normal -0 -0.894427 -0.447215
    outer loop
      vertex -15.5 9.9975 1
      vertex -18.8239 8.33333 4.32833
      vertex -63 9.9975 1
    endloop
  endfacet
  facet normal 1.34545e-06 -0.894427 -0.447214
    outer loop
      vertex -18.8239 8.33333 4.32833
      vertex -15.5 9.9975 1
      vertex -15.5 9.9953 1.0044
    endloop
  endfacet
  facet normal -0 0 1
    outer loop
      vertex -59.0094 12 4.995
      vertex -19.4906 9 4.995
      vertex -19.4906 12 4.995
    endloop
  endfacet
  facet normal 0 0 1
    outer loop
      vertex -19.4906 9 4.995
      vertex -59.0094 12 4.995
      vertex -59.0094 9 4.995
    endloop
  endfacet
  facet normal 0 0 -1
    outer loop
      vertex -63 -12 -1.005
      vertex -15.5 12 -1.005
      vertex -15.5 -12 -1.005
    endloop
  endfacet
  facet normal -0 0 -1
    outer loop
      vertex -15.5 12 -1.005
      vertex -63 -12 -1.005
      vertex -63 12 -1.005
    endloop
  endfacet
  facet normal -0 0 1
    outer loop
      vertex -59.0094 -9 4.995
      vertex -19.4906 -12 4.995
      vertex -19.4906 -9 4.995
    endloop
  endfacet
  facet normal 0 0 1
    outer loop
      vertex -19.4906 -12 4.995
      vertex -59.0094 -9 4.995
      vertex -59.0094 -12 4.995
    endloop
  endfacet
  facet normal 0 0.707107 0.707107
    outer loop
      vertex -18.8239 3.66667 4.32833
      vertex -59.0094 3 4.995
      vertex -19.4906 3 4.995
    endloop
  endfacet
  facet normal 0 0.707107 0.707107
    outer loop
      vertex -59.0094 3 4.995
      vertex -18.8239 3.66667 4.32833
      vertex -59.6761 3.66667 4.32833
    endloop
  endfacet
  facet normal 0 0.707107 0.707107
    outer loop
      vertex -18.8239 -8.33333 4.32833
      vertex -59.0094 -9 4.995
      vertex -19.4906 -9 4.995
    endloop
  endfacet
  facet normal 0 0.707107 0.707107
    outer loop
      vertex -59.0094 -9 4.995
      vertex -18.8239 -8.33333 4.32833
      vertex -59.6761 -8.33333 4.32833
    endloop
  endfacet
  facet normal 0 -0.707107 0.707107
    outer loop
      vertex -59.0094 -3 4.995
      vertex -18.8239 -3.66667 4.32833
      vertex -19.4906 -3 4.995
    endloop
  endfacet
  facet normal 0 -0.707107 0.707107
    outer loop
      vertex -18.8239 -3.66667 4.32833
      vertex -59.0094 -3 4.995
      vertex -59.6761 -3.66667 4.32833
    endloop
  endfacet
  facet normal 0 -0.707107 0.707107
    outer loop
      vertex -59.0094 9 4.995
      vertex -18.8239 8.33333 4.32833
      vertex -19.4906 9 4.995
    endloop
  endfacet
  facet normal 0 -0.707107 0.707107
    outer loop
      vertex -18.8239 8.33333 4.32833
      vertex -59.0094 9 4.995
      vertex -59.6761 8.33333 4.32833
    endloop
  endfacet
  facet normal -0.709452 0 0.704754
    outer loop
      vertex -15.495 12.005 0.999396
      vertex -15.4944 -12.005 1
      vertex -15.4944 12.005 1
    endloop
  endfacet
  facet normal -0.709452 0 0.704754
    outer loop
      vertex -15.4944 -12.005 1
      vertex -15.495 12.005 0.999396
      vertex -15.495 -12.005 0.999396
    endloop
  endfacet
  facet normal 0.709452 0 0.704754
    outer loop
      vertex -15.4956 12.005 1
      vertex -15.495 -12.005 0.999396
      vertex -15.495 12.005 0.999396
    endloop
  endfacet
  facet normal 0.709452 0 0.704754
    outer loop
      vertex -15.495 -12.005 0.999396
      vertex -15.4956 12.005 1
      vertex -15.4956 -12.005 1
    endloop
  endfacet
  facet normal 0.707104 -2.54676e-05 0.70711
    outer loop
      vertex -19.4906 -9 4.995
      vertex -15.5 -9.9953 1.0044
      vertex -18.8239 -8.33333 4.32833
    endloop
  endfacet
  facet normal 0.707107 -0 0.707107
    outer loop
      vertex -19.4906 -12 4.995
      vertex -15.5 -9.9953 1.0044
      vertex -19.4906 -9 4.995
    endloop
  endfacet
  facet normal 0.707107 0 0.707107
    outer loop
      vertex -15.5 -9.9953 1.0044
      vertex -19.4906 -12 4.995
      vertex -15.5 -12 1.0044
    endloop
  endfacet
  facet normal 0.707107 0 0.707107
    outer loop
      vertex -19.4906 12 4.995
      vertex -15.5 9.9953 1.0044
      vertex -15.5 12 1.0044
    endloop
  endfacet
  facet normal 0.707107 0 0.707107
    outer loop
      vertex -15.5 9.9953 1.0044
      vertex -19.4906 12 4.995
      vertex -19.4906 9 4.995
    endloop
  endfacet
  facet normal 0.707104 2.54676e-05 0.70711
    outer loop
      vertex -15.5 9.9953 1.0044
      vertex -19.4906 9 4.995
      vertex -18.8239 8.33333 4.32833
    endloop
  endfacet
  facet normal 0.707104 -2.54676e-05 0.70711
    outer loop
      vertex -19.4906 3 4.995
      vertex -15.5 2.0047 1.0044
      vertex -18.8239 3.66667 4.32833
    endloop
  endfacet
  facet normal 0.707107 0 0.707107
    outer loop
      vertex -19.4906 3 4.995
      vertex -15.5 -2.0047 1.0044
      vertex -15.5 2.0047 1.0044
    endloop
  endfacet
  facet normal 0.707107 -0 0.707107
    outer loop
      vertex -19.4906 -3 4.995
      vertex -15.5 -2.0047 1.0044
      vertex -19.4906 3 4.995
    endloop
  endfacet
  facet normal 0.707104 2.54676e-05 0.70711
    outer loop
      vertex -15.5 -2.0047 1.0044
      vertex -19.4906 -3 4.995
      vertex -18.8239 -3.66667 4.32833
    endloop
  endfacet
  facet normal 0 1 0
    outer loop
      vertex -15.4944 -12.005 1
      vertex -15.495 -12.005 0.999396
      vertex -15.4956 -12.005 1
    endloop
  endfacet
  facet normal 0 -1 0
    outer loop
      vertex -15.495 12.005 0.999396
      vertex -15.4944 12.005 1
      vertex -15.4956 12.005 1
    endloop
  endfacet
  facet normal -0.707107 0 0.707107
    outer loop
      vertex -63 9.9953 1.0044
      vertex -59.0094 9 4.995
      vertex -59.0094 12 4.995
    endloop
  endfacet
  facet normal -0.707104 2.54676e-05 0.70711
    outer loop
      vertex -59.0094 9 4.995
      vertex -63 9.9953 1.0044
      vertex -59.6761 8.33333 4.32833
    endloop
  endfacet
  facet normal 0 0 0
    outer loop
      vertex -63 9.9953 1.0044
      vertex -63 -2.0047 1.0044
      vertex -63 2.0047 1.0044
    endloop
  endfacet
  facet normal 0 0 0
    outer loop
      vertex -63 9.9953 1.0044
      vertex -63 -9.9953 1.0044
      vertex -63 -2.0047 1.0044
    endloop
  endfacet
  facet normal -0.707389 0 0.706824
    outer loop
      vertex -63 9.9953 1.0044
      vertex -63.005 12 0.999396
      vertex -63 -9.9953 1.0044
    endloop
  endfacet
  facet normal -0.707107 1.40913e-06 0.707106
    outer loop
      vertex -63.005 12 0.999396
      vertex -63 9.9953 1.0044
      vertex -59.0094 12 4.995
    endloop
  endfacet
  facet normal -0.707104 -2.54676e-05 0.70711
    outer loop
      vertex -63 2.0047 1.0044
      vertex -59.0094 3 4.995
      vertex -59.6761 3.66667 4.32833
    endloop
  endfacet
  facet normal -0.707107 0 0.707107
    outer loop
      vertex -59.0094 3 4.995
      vertex -63 2.0047 1.0044
      vertex -59.0094 -3 4.995
    endloop
  endfacet
  facet normal -0.707107 0 0.707107
    outer loop
      vertex -63 -2.0047 1.0044
      vertex -59.0094 -3 4.995
      vertex -63 2.0047 1.0044
    endloop
  endfacet
  facet normal -0.707104 2.54676e-05 0.70711
    outer loop
      vertex -59.0094 -3 4.995
      vertex -63 -2.0047 1.0044
      vertex -59.6761 -3.66667 4.32833
    endloop
  endfacet
  facet normal -0.707104 -2.54676e-05 0.70711
    outer loop
      vertex -63 -9.9953 1.0044
      vertex -59.0094 -9 4.995
      vertex -59.6761 -8.33333 4.32833
    endloop
  endfacet
  facet normal -0.707107 0 0.707107
    outer loop
      vertex -59.0094 -9 4.995
      vertex -63 -9.9953 1.0044
      vertex -59.0094 -12 4.995
    endloop
  endfacet
  facet normal -0.707107 -1.40913e-06 0.707106
    outer loop
      vertex -63 -9.9953 1.0044
      vertex -63.005 -12 0.999396
      vertex -59.0094 -12 4.995
    endloop
  endfacet
  facet normal -0.707389 0 0.706824
    outer loop
      vertex -63.005 -12 0.999396
      vertex -63 -9.9953 1.0044
      vertex -63.005 12 0.999396
    endloop
  endfacet
  facet normal 0.711216 -0 0.702974
    outer loop
      vertex -63.0079 -12 1.00233
      vertex -63.005 12 0.999396
      vertex -63.0079 12 1.00233
    endloop
  endfacet
  facet normal 0.711216 0 0.702974
    outer loop
      vertex -63.005 12 0.999396
      vertex -63.0079 -12 1.00233
      vertex -63.005 -12 0.999396
    endloop
  endfacet
  facet normal 1 -0 0
    outer loop
      vertex -63.005 -12 3
      vertex -63.005 12 1.00233
      vertex -63.005 12 3
    endloop
  endfacet
  facet normal 1 0 0
    outer loop
      vertex -63.005 12 1.00233
      vertex -63.005 -12 3
      vertex -63.005 -12 1.00233
    endloop
  endfacet
  facet normal 0 0 -1
    outer loop
      vertex -63.0079 -12 1.00233
      vertex -63.005 12 1.00233
      vertex -63.005 -12 1.00233
    endloop
  endfacet
  facet normal -0 0 -1
    outer loop
      vertex -63.005 12 1.00233
      vertex -63.0079 -12 1.00233
      vertex -63.0079 12 1.00233
    endloop
  endfacet
  facet normal -0.996917 -0.0784615 0
    outer loop
      vertex 1 0 -1
      vertex 0.987688 0.156434 1
      vertex 0.987688 0.156434 -1
    endloop
  endfacet
  facet normal -0.996917 -0.0784615 0
    outer loop
      vertex 0.987688 0.156434 1
      vertex 1 0 -1
      vertex 1 0 1
    endloop
  endfacet
  facet normal 0.996917 -0.0784615 0
    outer loop
      vertex -1 0 1
      vertex -0.987688 0.156434 -1
      vertex -0.987688 0.156434 1
    endloop
  endfacet
  facet normal 0.996917 -0.0784615 0
    outer loop
      vertex -0.987688 0.156434 -1
      vertex -1 0 1
      vertex -1 0 -1
    endloop
  endfacet
  facet normal -0.0784615 -0.996917 0
    outer loop
      vertex 0 1 -1
      vertex 0.156434 0.987688 1
      vertex 0 1 1
    endloop
  endfacet
  facet normal -0.0784615 -0.996917 -0
    outer loop
      vertex 0.156434 0.987688 1
      vertex 0 1 -1
      vertex 0.156434 0.987688 -1
    endloop
  endfacet
  facet normal 0.760411 0.649442 0
    outer loop
      vertex -0.707107 -0.707107 1
      vertex -0.809016 -0.587785 -1
      vertex -0.809016 -0.587785 1
    endloop
  endfacet
  facet normal 0.760411 0.649442 0
    outer loop
      vertex -0.809016 -0.587785 -1
      vertex -0.707107 -0.707107 1
      vertex -0.707107 -0.707107 -1
    endloop
  endfacet
  facet normal -0.760411 -0.649442 0
    outer loop
      vertex 0.809016 0.587785 -1
      vertex 0.707107 0.707107 1
      vertex 0.707107 0.707107 -1
    endloop
  endfacet
  facet normal -0.760411 -0.649442 0
    outer loop
      vertex 0.707107 0.707107 1
      vertex 0.809016 0.587785 -1
      vertex 0.809016 0.587785 1
    endloop
  endfacet
  facet normal 0.649442 -0.760411 0
    outer loop
      vertex -0.707107 0.707107 -1
      vertex -0.587785 0.809016 1
      vertex -0.707107 0.707107 1
    endloop
  endfacet
  facet normal 0.649442 -0.760411 0
    outer loop
      vertex -0.587785 0.809016 1
      vertex -0.707107 0.707107 -1
      vertex -0.587785 0.809016 -1
    endloop
  endfacet
  facet normal 0.382682 -0.92388 0
    outer loop
      vertex -0.45399 0.891006 -1
      vertex -0.309016 0.951056 1
      vertex -0.45399 0.891006 1
    endloop
  endfacet
  facet normal 0.382682 -0.92388 0
    outer loop
      vertex -0.309016 0.951056 1
      vertex -0.45399 0.891006 -1
      vertex -0.309016 0.951056 -1
    endloop
  endfacet
  facet normal -0.92388 -0.382682 0
    outer loop
      vertex 0.951056 0.309016 -1
      vertex 0.891006 0.45399 1
      vertex 0.891006 0.45399 -1
    endloop
  endfacet
  facet normal -0.92388 -0.382682 0
    outer loop
      vertex 0.891006 0.45399 1
      vertex 0.951056 0.309016 -1
      vertex 0.951056 0.309016 1
    endloop
  endfacet
  facet normal -0.972369 -0.233447 0
    outer loop
      vertex 0.987688 0.156434 -1
      vertex 0.951056 0.309016 1
      vertex 0.951056 0.309016 -1
    endloop
  endfacet
  facet normal -0.972369 -0.233447 0
    outer loop
      vertex 0.951056 0.309016 1
      vertex 0.987688 0.156434 -1
      vertex 0.987688 0.156434 1
    endloop
  endfacet
  facet normal -0.852639 -0.5225 0
    outer loop
      vertex 0.891006 0.45399 -1
      vertex 0.809016 0.587785 1
      vertex 0.809016 0.587785 -1
    endloop
  endfacet
  facet normal -0.852639 -0.5225 0
    outer loop
      vertex 0.809016 0.587785 1
      vertex 0.891006 0.45399 -1
      vertex 0.891006 0.45399 1
    endloop
  endfacet
  facet normal -0.5225 -0.852639 0
    outer loop
      vertex 0.45399 0.891006 -1
      vertex 0.587785 0.809016 1
      vertex 0.45399 0.891006 1
    endloop
  endfacet
  facet normal -0.5225 -0.852639 -0
    outer loop
      vertex 0.587785 0.809016 1
      vertex 0.45399 0.891006 -1
      vertex 0.587785 0.809016 -1
    endloop
  endfacet
  facet normal -0.382682 -0.92388 0
    outer loop
      vertex 0.309016 0.951056 -1
      vertex 0.45399 0.891006 1
      vertex 0.309016 0.951056 1
    endloop
  endfacet
  facet normal -0.382682 -0.92388 -0
    outer loop
      vertex 0.45399 0.891006 1
      vertex 0.309016 0.951056 -1
      vertex 0.45399 0.891006 -1
    endloop
  endfacet
  facet normal -0.649442 -0.760411 0
    outer loop
      vertex 0.587785 0.809016 -1
      vertex 0.707107 0.707107 1
      vertex 0.587785 0.809016 1
    endloop
  endfacet
  facet normal -0.649442 -0.760411 -0
    outer loop
      vertex 0.707107 0.707107 1
      vertex 0.587785 0.809016 -1
      vertex 0.707107 0.707107 -1
    endloop
  endfacet
  facet normal 0.852639 -0.5225 0
    outer loop
      vertex -0.891006 0.45399 1
      vertex -0.809016 0.587785 -1
      vertex -0.809016 0.587785 1
    endloop
  endfacet
  facet normal 0.852639 -0.5225 0
    outer loop
      vertex -0.809016 0.587785 -1
      vertex -0.891006 0.45399 1
      vertex -0.891006 0.45399 -1
    endloop
  endfacet
  facet normal 0.760411 -0.649442 0
    outer loop
      vertex -0.809016 0.587785 1
      vertex -0.707107 0.707107 -1
      vertex -0.707107 0.707107 1
    endloop
  endfacet
  facet normal 0.760411 -0.649442 0
    outer loop
      vertex -0.707107 0.707107 -1
      vertex -0.809016 0.587785 1
      vertex -0.809016 0.587785 -1
    endloop
  endfacet
  facet normal 0.92388 -0.382682 0
    outer loop
      vertex -0.951056 0.309016 1
      vertex -0.891006 0.45399 -1
      vertex -0.891006 0.45399 1
    endloop
  endfacet
  facet normal 0.92388 -0.382682 0
    outer loop
      vertex -0.891006 0.45399 -1
      vertex -0.951056 0.309016 1
      vertex -0.951056 0.309016 -1
    endloop
  endfacet
  facet normal 0.5225 -0.852639 0
    outer loop
      vertex -0.587785 0.809016 -1
      vertex -0.45399 0.891006 1
      vertex -0.587785 0.809016 1
    endloop
  endfacet
  facet normal 0.5225 -0.852639 0
    outer loop
      vertex -0.45399 0.891006 1
      vertex -0.587785 0.809016 -1
      vertex -0.45399 0.891006 -1
    endloop
  endfacet
  facet normal 0.233447 -0.972369 0
    outer loop
      vertex -0.309016 0.951056 -1
      vertex -0.156434 0.987688 1
      vertex -0.309016 0.951056 1
    endloop
  endfacet
  facet normal 0.233447 -0.972369 0
    outer loop
      vertex -0.156434 0.987688 1
      vertex -0.309016 0.951056 -1
      vertex -0.156434 0.987688 -1
    endloop
  endfacet
  facet normal -0.5225 0.852639 0
    outer loop
      vertex 0.587785 -0.809016 -1
      vertex 0.45399 -0.891006 1
      vertex 0.587785 -0.809016 1
    endloop
  endfacet
  facet normal -0.5225 0.852639 0
    outer loop
      vertex 0.45399 -0.891006 1
      vertex 0.587785 -0.809016 -1
      vertex 0.45399 -0.891006 -1
    endloop
  endfacet
  facet normal 0.649442 0.760411 -0
    outer loop
      vertex -0.587785 -0.809016 -1
      vertex -0.707107 -0.707107 1
      vertex -0.587785 -0.809016 1
    endloop
  endfacet
  facet normal 0.649442 0.760411 0
    outer loop
      vertex -0.707107 -0.707107 1
      vertex -0.587785 -0.809016 -1
      vertex -0.707107 -0.707107 -1
    endloop
  endfacet
  facet normal 0.382682 0.92388 -0
    outer loop
      vertex -0.309016 -0.951056 -1
      vertex -0.45399 -0.891006 1
      vertex -0.309016 -0.951056 1
    endloop
  endfacet
  facet normal 0.382682 0.92388 0
    outer loop
      vertex -0.45399 -0.891006 1
      vertex -0.309016 -0.951056 -1
      vertex -0.45399 -0.891006 -1
    endloop
  endfacet
  facet normal 0.852639 0.5225 0
    outer loop
      vertex -0.809016 -0.587785 1
      vertex -0.891006 -0.45399 -1
      vertex -0.891006 -0.45399 1
    endloop
  endfacet
  facet normal 0.852639 0.5225 0
    outer loop
      vertex -0.891006 -0.45399 -1
      vertex -0.809016 -0.587785 1
      vertex -0.809016 -0.587785 -1
    endloop
  endfacet
  facet normal -0.233447 -0.972369 0
    outer loop
      vertex 0.156434 0.987688 -1
      vertex 0.309016 0.951056 1
      vertex 0.156434 0.987688 1
    endloop
  endfacet
  facet normal -0.233447 -0.972369 -0
    outer loop
      vertex 0.309016 0.951056 1
      vertex 0.156434 0.987688 -1
      vertex 0.309016 0.951056 -1
    endloop
  endfacet
  facet normal 0.972369 -0.233447 0
    outer loop
      vertex -0.987688 0.156434 1
      vertex -0.951056 0.309016 -1
      vertex -0.951056 0.309016 1
    endloop
  endfacet
  facet normal 0.972369 -0.233447 0
    outer loop
      vertex -0.951056 0.309016 -1
      vertex -0.987688 0.156434 1
      vertex -0.987688 0.156434 -1
    endloop
  endfacet
  facet normal 0.0784615 -0.996917 0
    outer loop
      vertex -0.156434 0.987688 -1
      vertex 0 1 1
      vertex -0.156434 0.987688 1
    endloop
  endfacet
  facet normal 0.0784615 -0.996917 0
    outer loop
      vertex 0 1 1
      vertex -0.156434 0.987688 -1
      vertex 0 1 -1
    endloop
  endfacet
  facet normal -0.0784615 0.996917 0
    outer loop
      vertex 0.156434 -0.987688 -1
      vertex 0 -1 1
      vertex 0.156434 -0.987688 1
    endloop
  endfacet
  facet normal -0.0784615 0.996917 0
    outer loop
      vertex 0 -1 1
      vertex 0.156434 -0.987688 -1
      vertex 0 -1 -1
    endloop
  endfacet
  facet normal -0.382682 0.92388 0
    outer loop
      vertex 0.45399 -0.891006 -1
      vertex 0.309016 -0.951056 1
      vertex 0.45399 -0.891006 1
    endloop
  endfacet
  facet normal -0.382682 0.92388 0
    outer loop
      vertex 0.309016 -0.951056 1
      vertex 0.45399 -0.891006 -1
      vertex 0.309016 -0.951056 -1
    endloop
  endfacet
  facet normal -0.649442 0.760411 0
    outer loop
      vertex 0.707107 -0.707107 -1
      vertex 0.587785 -0.809016 1
      vertex 0.707107 -0.707107 1
    endloop
  endfacet
  facet normal -0.649442 0.760411 0
    outer loop
      vertex 0.587785 -0.809016 1
      vertex 0.707107 -0.707107 -1
      vertex 0.587785 -0.809016 -1
    endloop
  endfacet
  facet normal -0.92388 0.382682 0
    outer loop
      vertex 0.891006 -0.45399 -1
      vertex 0.951056 -0.309016 1
      vertex 0.951056 -0.309016 -1
    endloop
  endfacet
  facet normal -0.92388 0.382682 0
    outer loop
      vertex 0.951056 -0.309016 1
      vertex 0.891006 -0.45399 -1
      vertex 0.891006 -0.45399 1
    endloop
  endfacet
  facet normal -0.760411 0.649442 0
    outer loop
      vertex 0.707107 -0.707107 -1
      vertex 0.809016 -0.587785 1
      vertex 0.809016 -0.587785 -1
    endloop
  endfacet
  facet normal -0.760411 0.649442 0
    outer loop
      vertex 0.809016 -0.587785 1
      vertex 0.707107 -0.707107 -1
      vertex 0.707107 -0.707107 1
    endloop
  endfacet
  facet normal 0.5225 0.852639 -0
    outer loop
      vertex -0.45399 -0.891006 -1
      vertex -0.587785 -0.809016 1
      vertex -0.45399 -0.891006 1
    endloop
  endfacet
  facet normal 0.5225 0.852639 0
    outer loop
      vertex -0.587785 -0.809016 1
      vertex -0.45399 -0.891006 -1
      vertex -0.587785 -0.809016 -1
    endloop
  endfacet
  facet normal 0.233447 0.972369 -0
    outer loop
      vertex -0.156434 -0.987688 -1
      vertex -0.309016 -0.951056 1
      vertex -0.156434 -0.987688 1
    endloop
  endfacet
  facet normal 0.233447 0.972369 0
    outer loop
      vertex -0.309016 -0.951056 1
      vertex -0.156434 -0.987688 -1
      vertex -0.309016 -0.951056 -1
    endloop
  endfacet
  facet normal 0.92388 0.382682 0
    outer loop
      vertex -0.891006 -0.45399 1
      vertex -0.951056 -0.309016 -1
      vertex -0.951056 -0.309016 1
    endloop
  endfacet
  facet normal 0.92388 0.382682 0
    outer loop
      vertex -0.951056 -0.309016 -1
      vertex -0.891006 -0.45399 1
      vertex -0.891006 -0.45399 -1
    endloop
  endfacet
  facet normal 0.996917 0.0784615 0
    outer loop
      vertex -0.987688 -0.156434 1
      vertex -1 0 -1
      vertex -1 0 1
    endloop
  endfacet
  facet normal 0.996917 0.0784615 0
    outer loop
      vertex -1 0 -1
      vertex -0.987688 -0.156434 1
      vertex -0.987688 -0.156434 -1
    endloop
  endfacet
  facet normal -0.233447 0.972369 0
    outer loop
      vertex 0.309016 -0.951056 -1
      vertex 0.156434 -0.987688 1
      vertex 0.309016 -0.951056 1
    endloop
  endfacet
  facet normal -0.233447 0.972369 0
    outer loop
      vertex 0.156434 -0.987688 1
      vertex 0.309016 -0.951056 -1
      vertex 0.156434 -0.987688 -1
    endloop
  endfacet
  facet normal -0.972369 0.233447 0
    outer loop
      vertex 0.951056 -0.309016 -1
      vertex 0.987688 -0.156434 1
      vertex 0.987688 -0.156434 -1
    endloop
  endfacet
  facet normal -0.972369 0.233447 0
    outer loop
      vertex 0.987688 -0.156434 1
      vertex 0.951056 -0.309016 -1
      vertex 0.951056 -0.309016 1
    endloop
  endfacet
  facet normal -0.852639 0.5225 0
    outer loop
      vertex 0.809016 -0.587785 -1
      vertex 0.891006 -0.45399 1
      vertex 0.891006 -0.45399 -1
    endloop
  endfacet
  facet normal -0.852639 0.5225 0
    outer loop
      vertex 0.891006 -0.45399 1
      vertex 0.809016 -0.587785 -1
      vertex 0.809016 -0.587785 1
    endloop
  endfacet
  facet normal 0.0784615 0.996917 -0
    outer loop
      vertex 0 -1 -1
      vertex -0.156434 -0.987688 1
      vertex 0 -1 1
    endloop
  endfacet
  facet normal 0.0784615 0.996917 0
    outer loop
      vertex -0.156434 -0.987688 1
      vertex 0 -1 -1
      vertex -0.156434 -0.987688 -1
    endloop
  endfacet
  facet normal 0.972369 0.233447 0
    outer loop
      vertex -0.951056 -0.309016 1
      vertex -0.987688 -0.156434 -1
      vertex -0.987688 -0.156434 1
    endloop
  endfacet
  facet normal 0.972369 0.233447 0
    outer loop
      vertex -0.987688 -0.156434 -1
      vertex -0.951056 -0.309016 1
      vertex -0.951056 -0.309016 -1
    endloop
  endfacet
  facet normal -0.996917 0.0784615 0
    outer loop
      vertex 0.987688 -0.156434 -1
      vertex 1 0 1
      vertex 1 0 -1
    endloop
  endfacet
  facet normal -0.996917 0.0784615 0
    outer loop
      vertex 1 0 1
      vertex 0.987688 -0.156434 -1
      vertex 0.987688 -0.156434 1
    endloop
  endfacet
endsolid OpenSCAD_Model
